<svg width="85" height="14" viewBox="0 0 85 14" fill="none" xmlns="http://www.w3.org/2000/svg">
<path d="M5.31769 13.4282C3.81547 13.4282 2.62524 13.0122 1.74702 12.1802C0.868799 11.3367 0.429687 10.1349 0.429688 8.5749V5.6629C0.429688 4.1029 0.868799 2.9069 1.74702 2.0749C2.62524 1.23135 3.81547 0.80957 5.31769 0.80957C6.80835 0.80957 7.95813 1.21979 8.76702 2.04024C9.58747 2.84913 9.99769 3.96424 9.99769 5.38557V5.48957H7.74436V5.31624C7.74436 4.59979 7.54213 4.01046 7.13769 3.54824C6.7448 3.08602 6.13813 2.8549 5.31769 2.8549C4.5088 2.8549 3.87324 3.10335 3.41102 3.60024C2.9488 4.09713 2.71769 4.77313 2.71769 5.62824V8.60957C2.71769 9.45313 2.9488 10.1291 3.41102 10.6376C3.87324 11.1345 4.5088 11.3829 5.31769 11.3829C6.13813 11.3829 6.7448 11.1518 7.13769 10.6896C7.54213 10.2158 7.74436 9.62646 7.74436 8.92157V8.60957H9.99769V8.85224C9.99769 10.2736 9.58747 11.3945 8.76702 12.2149C7.95813 13.0238 6.80835 13.4282 5.31769 13.4282Z" fill="#1A1A18"/>
<path d="M11.9313 13.1856V1.05224H14.1153V5.64557H14.4273C14.5197 5.46068 14.6642 5.27579 14.8606 5.0909C15.0571 4.90602 15.3171 4.75579 15.6406 4.64024C15.9757 4.51313 16.3975 4.44957 16.906 4.44957C17.5762 4.44957 18.1597 4.60557 18.6566 4.91757C19.1651 5.21802 19.558 5.63979 19.8353 6.1829C20.1126 6.71446 20.2513 7.33846 20.2513 8.0549V13.1856H18.0673V8.22824C18.0673 7.58113 17.9055 7.09579 17.582 6.77224C17.27 6.44868 16.8193 6.2869 16.23 6.2869C15.5597 6.2869 15.0397 6.51224 14.67 6.9629C14.3002 7.40202 14.1153 8.02024 14.1153 8.81757V13.1856H11.9313Z" fill="#1A1A18"/>
<path d="M25.2816 13.4282C24.6692 13.4282 24.1203 13.3242 23.635 13.1162C23.1496 12.8967 22.7625 12.5847 22.4736 12.1802C22.1963 11.7642 22.0576 11.2616 22.0576 10.6722C22.0576 10.0829 22.1963 9.59179 22.4736 9.1989C22.7625 8.79446 23.1554 8.49402 23.6523 8.29757C24.1607 8.08957 24.7385 7.98557 25.3856 7.98557H27.743V7.50024C27.743 7.09579 27.6158 6.76646 27.3616 6.51224C27.1074 6.24646 26.703 6.11357 26.1483 6.11357C25.6052 6.11357 25.2007 6.24068 24.935 6.4949C24.6692 6.73757 24.4958 7.05535 24.415 7.44824L22.4043 6.77224C22.543 6.33313 22.7625 5.93446 23.063 5.57624C23.375 5.20646 23.7852 4.91179 24.2936 4.69224C24.8136 4.46113 25.4434 4.34557 26.183 4.34557C27.3154 4.34557 28.211 4.62868 28.8696 5.1949C29.5283 5.76113 29.8576 6.58157 29.8576 7.65624V10.8629C29.8576 11.2096 30.0194 11.3829 30.343 11.3829H31.0363V13.1856H29.5803C29.1527 13.1856 28.8003 13.0816 28.523 12.8736C28.2456 12.6656 28.107 12.3882 28.107 12.0416V12.0242H27.7776C27.7314 12.1629 27.6274 12.3478 27.4656 12.5789C27.3038 12.7985 27.0496 12.9949 26.703 13.1682C26.3563 13.3416 25.8825 13.4282 25.2816 13.4282ZM25.663 11.6602C26.2754 11.6602 26.7723 11.4927 27.1536 11.1576C27.5465 10.8109 27.743 10.3545 27.743 9.78824V9.6149H25.5416C25.1372 9.6149 24.8194 9.70157 24.5883 9.8749C24.3572 10.0482 24.2416 10.2909 24.2416 10.6029C24.2416 10.9149 24.363 11.1691 24.6056 11.3656C24.8483 11.562 25.2007 11.6602 25.663 11.6602Z" fill="#1A1A18"/>
<path d="M32.6331 13.1856V4.58824H34.8171V13.1856H32.6331ZM33.7251 3.5829C33.3322 3.5829 32.9971 3.45579 32.7198 3.20157C32.454 2.94735 32.3211 2.61224 32.3211 2.19624C32.3211 1.78024 32.454 1.44513 32.7198 1.1909C32.9971 0.936682 33.3322 0.80957 33.7251 0.80957C34.1296 0.80957 34.4647 0.936682 34.7305 1.1909C34.9962 1.44513 35.1291 1.78024 35.1291 2.19624C35.1291 2.61224 34.9962 2.94735 34.7305 3.20157C34.4647 3.45579 34.1296 3.5829 33.7251 3.5829Z" fill="#1A1A18"/>
<path d="M37.2373 13.1856V4.58824H39.3866V5.7149H39.6986C39.8373 5.41446 40.0973 5.13135 40.4786 4.86557C40.86 4.58824 41.4377 4.44957 42.212 4.44957C42.8822 4.44957 43.4657 4.60557 43.9626 4.91757C44.4711 5.21802 44.864 5.63979 45.1413 6.1829C45.4186 6.71446 45.5573 7.33846 45.5573 8.0549V13.1856H43.3733V8.22824C43.3733 7.58113 43.2115 7.09579 42.888 6.77224C42.576 6.44868 42.1253 6.2869 41.536 6.2869C40.8657 6.2869 40.3457 6.51224 39.976 6.9629C39.6062 7.40202 39.4213 8.02024 39.4213 8.81757V13.1856H37.2373Z" fill="#1A1A18"/>
<path d="M47.8489 13.1856V1.05224H55.4756V3.13224H50.1369V6.06157H55.0596V8.14157H50.1369V13.1856H47.8489Z" fill="#1A1A18"/>
<path d="M57.1774 13.1856V1.05224H59.3614V13.1856H57.1774Z" fill="#1A1A18"/>
<path d="M65.8722 13.4282C65.0171 13.4282 64.2487 13.2549 63.5669 12.9082C62.8851 12.5616 62.3478 12.0589 61.9549 11.4002C61.562 10.7416 61.3656 9.95002 61.3656 9.02557V8.74824C61.3656 7.82379 61.562 7.03224 61.9549 6.37357C62.3478 5.7149 62.8851 5.21224 63.5669 4.86557C64.2487 4.5189 65.0171 4.34557 65.8722 4.34557C66.7273 4.34557 67.4958 4.5189 68.1776 4.86557C68.8593 5.21224 69.3967 5.7149 69.7896 6.37357C70.1825 7.03224 70.3789 7.82379 70.3789 8.74824V9.02557C70.3789 9.95002 70.1825 10.7416 69.7896 11.4002C69.3967 12.0589 68.8593 12.5616 68.1776 12.9082C67.4958 13.2549 66.7273 13.4282 65.8722 13.4282ZM65.8722 11.4869C66.5424 11.4869 67.0971 11.2731 67.5362 10.8456C67.9753 10.4065 68.1949 9.78246 68.1949 8.97357V8.80024C68.1949 7.99135 67.9753 7.37313 67.5362 6.94557C67.1087 6.50646 66.554 6.2869 65.8722 6.2869C65.202 6.2869 64.6473 6.50646 64.2082 6.94557C63.7691 7.37313 63.5496 7.99135 63.5496 8.80024V8.97357C63.5496 9.78246 63.7691 10.4065 64.2082 10.8456C64.6473 11.2731 65.202 11.4869 65.8722 11.4869Z" fill="#1A1A18"/>
<path d="M73.0543 13.1856L71.841 4.58824H74.0077L74.7703 11.7122H75.0823L76.1917 4.58824H79.693L80.8023 11.7122H81.1143L81.877 4.58824H84.0437L82.8303 13.1856H79.2077L78.0983 6.06157H77.7863L76.677 13.1856H73.0543Z" fill="#1A1A18"/>
</svg>
