<svg width="136" height="21" viewBox="0 0 136 21" fill="none" xmlns="http://www.w3.org/2000/svg">
<path d="M8.82569 20.384C6.39902 20.384 4.47635 19.712 3.05769 18.368C1.63902 17.0053 0.929687 15.064 0.929688 12.544V7.84C0.929688 5.32 1.63902 3.388 3.05769 2.044C4.47635 0.681333 6.39902 0 8.82569 0C11.2337 0 13.091 0.662667 14.3977 1.988C15.723 3.29467 16.3857 5.096 16.3857 7.392V7.56H12.7457V7.28C12.7457 6.12267 12.419 5.17067 11.7657 4.424C11.131 3.67733 10.151 3.304 8.82569 3.304C7.51902 3.304 6.49235 3.70533 5.74569 4.508C4.99902 5.31067 4.62569 6.40267 4.62569 7.784V12.6C4.62569 13.9627 4.99902 15.0547 5.74569 15.876C6.49235 16.6787 7.51902 17.08 8.82569 17.08C10.151 17.08 11.131 16.7067 11.7657 15.96C12.419 15.1947 12.7457 14.2427 12.7457 13.104V12.6H16.3857V12.992C16.3857 15.288 15.723 17.0987 14.3977 18.424C13.091 19.7307 11.2337 20.384 8.82569 20.384Z" fill="#0D0D0D"/>
<path d="M19.5092 19.992V0.392H23.0372V7.812H23.5412C23.6906 7.51333 23.9239 7.21467 24.2412 6.916C24.5586 6.61733 24.9786 6.37467 25.5012 6.188C26.0426 5.98267 26.7239 5.88 27.5452 5.88C28.6279 5.88 29.5706 6.132 30.3732 6.636C31.1946 7.12133 31.8292 7.80267 32.2772 8.68C32.7252 9.53867 32.9492 10.5467 32.9492 11.704V19.992H29.4212V11.984C29.4212 10.9387 29.1599 10.1547 28.6372 9.632C28.1332 9.10933 27.4052 8.848 26.4532 8.848C25.3706 8.848 24.5306 9.212 23.9332 9.94C23.3359 10.6493 23.0372 11.648 23.0372 12.936V19.992H19.5092Z" fill="#0D0D0D"/>
<path d="M41.0751 20.384C40.0858 20.384 39.1991 20.216 38.4151 19.88C37.6311 19.5253 37.0058 19.0213 36.5391 18.368C36.0911 17.696 35.8671 16.884 35.8671 15.932C35.8671 14.98 36.0911 14.1867 36.5391 13.552C37.0058 12.8987 37.6405 12.4133 38.4431 12.096C39.2645 11.76 40.1978 11.592 41.2431 11.592H45.0511V10.808C45.0511 10.1547 44.8458 9.62267 44.4351 9.212C44.0245 8.78267 43.3711 8.568 42.4751 8.568C41.5978 8.568 40.9445 8.77333 40.5151 9.184C40.0858 9.576 39.8058 10.0893 39.6751 10.724L36.4271 9.632C36.6511 8.92267 37.0058 8.27867 37.4911 7.7C37.9951 7.10267 38.6578 6.62667 39.4791 6.272C40.3191 5.89867 41.3365 5.712 42.5311 5.712C44.3605 5.712 45.8071 6.16933 46.8711 7.084C47.9351 7.99867 48.4671 9.324 48.4671 11.06V16.24C48.4671 16.8 48.7285 17.08 49.2511 17.08H50.3711V19.992H48.0191C47.3285 19.992 46.7591 19.824 46.3111 19.488C45.8631 19.152 45.6391 18.704 45.6391 18.144V18.116H45.1071C45.0325 18.34 44.8645 18.6387 44.6031 19.012C44.3418 19.3667 43.9311 19.684 43.3711 19.964C42.8111 20.244 42.0458 20.384 41.0751 20.384ZM41.6911 17.528C42.6805 17.528 43.4831 17.2573 44.0991 16.716C44.7338 16.156 45.0511 15.4187 45.0511 14.504V14.224H41.4951C40.8418 14.224 40.3285 14.364 39.9551 14.644C39.5818 14.924 39.3951 15.316 39.3951 15.82C39.3951 16.324 39.5911 16.7347 39.9831 17.052C40.3751 17.3693 40.9445 17.528 41.6911 17.528Z" fill="#0D0D0D"/>
<path d="M52.9506 19.992V6.104H56.4786V19.992H52.9506ZM54.7146 4.48C54.08 4.48 53.5386 4.27467 53.0906 3.864C52.6613 3.45333 52.4466 2.912 52.4466 2.24C52.4466 1.568 52.6613 1.02667 53.0906 0.616C53.5386 0.205333 54.08 0 54.7146 0C55.368 0 55.9093 0.205333 56.3386 0.616C56.768 1.02667 56.9826 1.568 56.9826 2.24C56.9826 2.912 56.768 3.45333 56.3386 3.864C55.9093 4.27467 55.368 4.48 54.7146 4.48Z" fill="#0D0D0D"/>
<path d="M60.3881 19.992V6.104H63.8601V7.924H64.3641C64.5881 7.43867 65.0081 6.98133 65.6241 6.552C66.2401 6.104 67.1735 5.88 68.4241 5.88C69.5068 5.88 70.4495 6.132 71.2521 6.636C72.0735 7.12133 72.7081 7.80267 73.1561 8.68C73.6041 9.53867 73.8281 10.5467 73.8281 11.704V19.992H70.3001V11.984C70.3001 10.9387 70.0388 10.1547 69.5161 9.632C69.0121 9.10933 68.2841 8.848 67.3321 8.848C66.2495 8.848 65.4095 9.212 64.8121 9.94C64.2148 10.6493 63.9161 11.648 63.9161 12.936V19.992H60.3881Z" fill="#0D0D0D"/>
<path d="M77.53 19.992V0.392H89.85V3.752H81.226V8.484H89.178V11.844H81.226V19.992H77.53Z" fill="#0D0D0D"/>
<path d="M92.5991 19.992V0.392H96.1271V19.992H92.5991Z" fill="#0D0D0D"/>
<path d="M106.645 20.384C105.263 20.384 104.022 20.104 102.921 19.544C101.819 18.984 100.951 18.172 100.317 17.108C99.6819 16.044 99.3646 14.7653 99.3646 13.272V12.824C99.3646 11.3307 99.6819 10.052 100.317 8.988C100.951 7.924 101.819 7.112 102.921 6.552C104.022 5.992 105.263 5.712 106.645 5.712C108.026 5.712 109.267 5.992 110.369 6.552C111.47 7.112 112.338 7.924 112.973 8.988C113.607 10.052 113.925 11.3307 113.925 12.824V13.272C113.925 14.7653 113.607 16.044 112.973 17.108C112.338 18.172 111.47 18.984 110.369 19.544C109.267 20.104 108.026 20.384 106.645 20.384ZM106.645 17.248C107.727 17.248 108.623 16.9027 109.333 16.212C110.042 15.5027 110.397 14.4947 110.397 13.188V12.908C110.397 11.6013 110.042 10.6027 109.333 9.912C108.642 9.20267 107.746 8.848 106.645 8.848C105.562 8.848 104.666 9.20267 103.957 9.912C103.247 10.6027 102.893 11.6013 102.893 12.908V13.188C102.893 14.4947 103.247 15.5027 103.957 16.212C104.666 16.9027 105.562 17.248 106.645 17.248Z" fill="#0D0D0D"/>
<path d="M118.246 19.992L116.286 6.104H119.786L121.018 17.612H121.522L123.314 6.104H128.97L130.762 17.612H131.266L132.498 6.104H135.998L134.038 19.992H128.186L126.394 8.484H125.89L124.098 19.992H118.246Z" fill="#0D0D0D"/>
</svg>
