<svg width="222" height="147" viewBox="0 0 222 147" fill="none" xmlns="http://www.w3.org/2000/svg">
<path d="M61.5258 77.6213C61.5258 77.6213 61.8208 77.4769 61.9118 76.9803L61.9123 76.8925L61.9127 76.8048C61.8856 76.3371 61.4174 75.7793 60.8905 75.2215C60.2756 74.6047 59.7474 74.3094 59.7474 74.3094C59.7474 74.3094 59.4889 73.0807 58.3787 71.3803C57.2987 69.6797 55.4236 67.8876 54.391 68.4084C53.358 68.9291 54.263 70.3951 54.3197 70.8339C54.4057 71.3017 54.843 72.0638 54.6961 72.0631C54.5197 72.0331 52.3038 67.8426 46.7054 68.9838C45.2615 69.2973 44.0221 69.9053 43.0173 70.6889L42.9671 80.45C43.3223 80.1011 43.47 79.9263 43.47 79.9263C43.47 79.9263 43.8439 81.682 44.5465 82.4746C45.2487 83.2672 46.0999 83.739 46.3677 83.1557C46.6355 82.6019 45.8236 80.2015 45.8236 80.2015C45.8236 80.2015 47.3467 81.6704 47.7865 82.0233C48.2263 82.3759 49.0776 82.8187 49.317 82.031C49.527 81.2432 48.9151 80.042 48.4158 79.835C47.9462 79.6279 47.6514 79.6263 47.6514 79.6263C47.6514 79.6263 47.3593 79.2449 47.2123 79.1272C47.0365 79.0092 47.0069 79.0094 47.0069 79.0094C47.0069 79.0094 47.2725 78.8645 48.0969 78.8979C48.9503 78.9313 49.6271 78.9642 49.6271 78.9642C49.6271 78.9642 50.3868 80.0783 50.8558 80.4314C51.2955 80.8135 52.4388 81.7254 52.8488 82.107C53.2295 82.489 53.4641 82.6657 53.6132 82.3444C53.7327 82.0237 53.5307 81.1753 53.0041 80.5589C52.4481 79.9717 51.861 79.6472 51.6562 79.3541C51.4816 79.0023 51.3651 78.7389 51.3651 78.7389C51.3651 78.7389 52.4503 79.5333 52.7137 79.7979C53.0069 80.0331 54.9434 81.2409 55.2662 81.447C55.5888 81.6827 55.7368 81.5372 55.7368 81.5372C55.7368 81.5372 55.9713 81.7136 56.0603 81.5974C56.1494 81.4808 56.3888 80.6931 55.773 80.2225C55.1279 79.7223 54.7465 79.4867 54.8057 79.4285C54.8354 79.3704 55.4821 79.5781 55.5709 79.403C55.6306 79.2573 55.5435 79.0233 55.4553 78.9644C55.3969 78.8759 55.6334 78.702 55.6334 78.702C55.6334 78.702 55.8689 78.703 56.8397 78.7957C57.8106 78.8884 60.2577 78.0826 60.7593 77.9097C61.2604 77.7367 61.5258 77.6213 61.5258 77.6213ZM42.9179 90.094C44.9557 88.7895 45.0607 85.4583 43.9458 84.8095C43.623 84.6036 43.3 84.456 42.9471 84.366L42.9394 85.886C43.0275 85.9445 43.1155 86.0332 43.1732 86.1793C43.348 86.531 43.2577 86.9686 43.2577 86.9686C43.2577 86.9686 43.2311 86.4134 43.0266 86.12L42.9386 86.0319L42.9179 90.094ZM43.0171 70.6893C42.5744 71.0088 42.1897 71.3864 41.8343 71.7647L41.7847 81.4377C42.0801 81.2639 42.3458 81.0897 42.5828 80.8573C42.731 80.7121 42.8491 80.5663 42.9677 80.4502L43.0171 70.6893ZM41.738 90.5847C42.1801 90.4994 42.5928 90.3262 42.9179 90.094L42.9386 86.0319C42.8397 85.898 42.7322 85.7705 42.6167 85.6503C42.6167 85.6503 42.7637 85.7096 42.9394 85.886L42.9471 84.366C42.565 84.2474 42.1532 84.1868 41.7704 84.2728L41.7573 86.8152C41.846 86.7572 41.9931 86.7285 41.9331 86.9331C41.903 87.05 41.8147 87.0491 41.7557 87.0491L41.7481 88.5396C41.8071 88.5397 41.8951 88.5403 41.9542 88.5114C41.9542 88.5114 41.8951 88.5695 41.7474 88.627L41.738 90.5847ZM41.8343 71.7647C39.7627 73.9167 38.8371 76.5132 38.6281 77.0965C38.2997 78.0008 36.1934 81.2631 36.0066 83.191C35.8492 85.1484 35.7959 89.9116 40.2666 90.5773C40.7957 90.6677 41.2962 90.6698 41.738 90.5843L41.7481 88.6266C41.3354 88.7411 40.4223 88.8535 39.398 87.6796C38.0226 86.0945 38.7128 83.5261 39.8065 82.6547C40.5159 82.0738 41.1946 81.7558 41.7849 81.4372L41.8343 71.7647ZM41.7704 84.2722L41.7573 86.8149C41.6688 86.8729 41.6096 86.8726 41.5516 86.7844C41.4917 86.9598 41.6093 87.0477 41.7562 87.0484L41.7484 88.5389C40.8061 88.6215 39.5152 87.7967 39.8456 86.5126C40.2358 85.0538 40.9458 84.4145 41.7704 84.2722Z" fill="white"/>
<path d="M47.6436 55.2939L49.5156 55.2337C50.5205 55.2014 51.8962 55.9089 51.8109 57.1862L51.2795 65.1295C51.2129 66.1254 50.7777 66.6504 49.9826 66.6465L47.5154 66.634C46.5101 66.6288 46.0904 65.9946 46.0244 64.9987L45.5038 57.1543C45.4382 56.1581 46.2177 55.3396 47.6438 55.2937L47.6436 55.2939Z" fill="white"/>
<path d="M32.7649 60.766L34.2452 59.4804C35.0399 58.7907 36.6318 58.4566 37.4185 59.5508L42.3098 66.3553C42.9231 67.2086 42.9213 67.9224 42.2726 68.4445L40.2598 70.0642C39.4396 70.7241 38.6737 70.4859 37.9527 69.7202L32.2732 63.6909C31.552 62.9254 31.6368 61.7452 32.7649 60.766Z" fill="white"/>
<path d="M25.6703 74.8446L25.9947 73.0294C26.1687 72.0551 27.1415 70.8747 28.3721 71.2183L36.0242 73.3556C36.9835 73.6236 37.4072 74.1501 37.2406 74.9151L36.7236 77.2889C36.5129 78.2562 35.8073 78.5302 34.8207 78.39L27.0503 77.2858C26.0637 77.1456 25.4233 76.2271 25.6703 74.8446Z" fill="white"/>
<path d="M26.7778 88.0433L26.0556 86.7766C25.6679 86.0965 25.662 84.8922 26.585 84.4869L32.3253 81.9653C33.045 81.6495 33.5697 81.7578 33.856 82.3069L34.7439 84.0099C35.1058 84.7037 34.8154 85.223 34.1439 85.6303L28.8551 88.8398C28.1833 89.2473 27.3281 89.0081 26.7778 88.0433Z" fill="white"/>
<path d="M187.593 81.8889V78.0118C188.883 78.0118 189.969 77.5735 190.851 76.6634C191.7 75.7532 192.141 74.573 192.141 73.1571C192.141 71.7409 191.734 70.561 190.851 69.6841C190.003 68.8076 188.917 68.3694 187.593 68.3694V64.425C189.121 64.4585 190.614 64.8296 191.972 65.605C193.363 66.3806 194.449 67.4593 195.23 68.8076C196.011 70.1231 196.384 71.5724 196.384 73.1233C196.384 74.708 196.011 76.1575 195.23 77.5399C194.415 78.9222 193.363 79.9674 192.006 80.7428C190.682 81.518 189.188 81.889 187.593 81.889L187.593 81.8889ZM187.593 64.4246V68.3694L187.559 68.3692C186.269 68.3692 185.183 68.8075 184.3 69.6843C183.452 70.5946 183.011 71.7407 183.011 73.1569C183.011 74.6064 183.452 75.7866 184.3 76.6633C185.149 77.5734 186.235 78.0116 187.559 78.0116H187.593V81.8887H187.525C185.115 81.8887 183.078 81.0458 181.381 79.3601C179.684 77.6407 178.835 75.5843 178.835 73.1569C178.835 70.5608 179.786 68.4367 181.721 66.6834C183.384 65.2 185.319 64.4246 187.491 64.4246H187.593ZM122.047 81.8551V78.079C123.371 78.079 124.457 77.6069 125.306 76.6968C126.188 75.7866 126.629 74.6064 126.629 73.123C126.629 71.6735 126.188 70.4933 125.306 69.6166C124.457 68.7401 123.371 68.3017 122.047 68.3017V64.492C122.715 64.5566 123.368 64.7274 123.982 64.9977C124.864 65.3685 125.679 65.9418 126.426 66.6834V64.8629H130.635V81.484H126.426V79.6972C125.611 80.5066 124.797 81.0456 123.948 81.3829C123.371 81.6528 122.726 81.7877 122.047 81.8551ZM134.844 64.8632H139.053V66.7849C139.765 65.9755 140.58 65.4026 141.463 65.0317C142.345 64.6272 143.296 64.425 144.314 64.425C145.366 64.425 146.317 64.6944 147.165 65.2002C148.014 65.7059 148.693 66.4476 149.202 67.4254C149.816 66.4914 150.656 65.7261 151.646 65.2002C152.631 64.6944 153.683 64.4248 154.837 64.4248C156.025 64.4248 157.077 64.6944 157.96 65.2677C158.876 65.8069 159.521 66.5151 159.929 67.4255C160.302 68.3019 160.506 69.7183 160.506 71.7073V81.4844H156.297V73.0222C156.297 71.1341 156.059 69.8531 155.584 69.2123C155.109 68.5716 154.396 68.2347 153.446 68.2347C152.733 68.2347 152.088 68.4369 151.511 68.8418C150.934 69.2123 150.526 69.7856 150.255 70.4936C149.949 71.2358 149.813 72.3817 149.813 73.9662V81.4845H145.605V73.427C145.605 71.9099 145.468 70.8309 145.265 70.1904C145.027 69.5162 144.688 69.0442 144.247 68.7069C143.806 68.4035 143.297 68.2349 142.651 68.2349C141.972 68.2349 141.327 68.4371 140.751 68.8419C140.207 69.2125 139.766 69.8197 139.495 70.5613C139.189 71.303 139.053 72.4828 139.053 74.0677V81.4847H134.845V64.863L134.844 64.8632ZM166.174 58.0188C166.921 58.0188 167.532 58.2886 168.075 58.7944C168.584 59.3337 168.856 59.9744 168.856 60.7162C168.856 61.4914 168.618 62.0985 168.075 62.6378C167.566 63.1772 166.921 63.4134 166.208 63.4134C165.461 63.4134 164.816 63.1436 164.273 62.6041C163.764 62.0983 163.492 61.424 163.492 60.6822C163.492 59.9405 163.764 59.3 164.273 58.7944C164.782 58.2548 165.427 58.0188 166.174 58.0188ZM164.07 64.863H168.279V81.4842H164.07L164.07 64.863ZM171.639 58.4233H175.848V81.4842H171.639V58.4233ZM91.8367 62.9748L88.8157 65.8407C86.7452 63.6828 84.4371 62.6041 81.8913 62.6041C79.7188 62.6041 77.8859 63.3459 76.4264 64.7955C74.9327 66.2791 74.186 68.0658 74.186 70.1899C74.186 71.7071 74.5255 73.022 75.1705 74.2017C75.8155 75.3483 76.766 76.2584 77.954 76.9329C79.1759 77.6068 80.4998 77.9101 81.9593 77.9101C83.2154 77.9101 84.3693 77.7082 85.3877 77.236C86.4398 76.764 87.594 75.9211 88.8159 74.7077L91.7351 77.7082C90.0718 79.3601 88.4765 80.473 86.9828 81.1135C85.5233 81.7202 83.826 82.0237 81.8913 82.0237C78.3951 82.0237 75.5097 80.9448 73.2354 78.7194C70.9951 76.4944 69.875 73.6625 69.875 70.1901C69.875 67.9647 70.384 65.9755 71.4367 64.2224C72.4548 62.503 73.9143 61.0869 75.8153 60.0421C77.7159 58.963 79.7526 58.4235 81.9589 58.4235C83.8259 58.4235 85.625 58.8281 87.3561 59.6035C89.0873 60.4126 90.5807 61.5252 91.8367 62.9748ZM122.047 64.492V68.3017H122.013C120.689 68.3017 119.637 68.7401 118.755 69.6166C117.906 70.5269 117.465 71.7071 117.465 73.123C117.465 74.5728 117.906 75.7526 118.789 76.6968C119.671 77.6069 120.758 78.0791 122.013 78.0791H122.047L122.047 81.8551C121.809 81.8887 121.538 81.8887 121.267 81.8887C119.094 81.8887 117.227 81.0794 115.632 79.3937C114.071 77.7418 113.29 75.6515 113.29 73.1905C113.29 70.6282 114.036 68.5377 115.564 66.8858C117.091 65.2675 118.958 64.4246 121.131 64.4246C121.47 64.4246 121.742 64.4584 122.047 64.492ZM95.1631 58.4233H99.3384V66.5487C100.153 65.8407 101.002 65.3011 101.816 64.9642C102.665 64.5933 103.48 64.4246 104.328 64.4246C105.957 64.4246 107.383 64.9979 108.503 66.144C109.488 67.1218 109.963 68.6054 109.963 70.4931V81.484H105.822V74.1681C105.822 72.2461 105.754 70.9314 105.55 70.2571C105.381 69.5828 105.041 69.1108 104.634 68.7735C104.192 68.4364 103.649 68.2679 103.005 68.2679C102.122 68.2679 101.409 68.5377 100.798 69.1108C100.187 69.6164 99.7458 70.392 99.5082 71.3696C99.4062 71.8756 99.3384 72.9881 99.3384 74.7748V81.484H95.1633L95.1631 58.4233ZM194.11 90.2165V89.6769C194.45 89.6769 194.721 89.6096 194.992 89.4409C195.264 89.2723 195.468 89.0364 195.604 88.7331H196.215C196.045 89.2051 195.739 89.576 195.4 89.8456C195.027 90.0816 194.619 90.2167 194.144 90.2167H194.11L194.11 90.2165ZM194.11 88.126V87.654H195.74C195.638 87.182 195.468 86.8111 195.162 86.5751C194.891 86.3391 194.551 86.2042 194.11 86.2042V85.665H194.144C194.823 85.665 195.332 85.901 195.74 86.3392C196.147 86.7775 196.385 87.384 196.385 88.0926V88.126H194.11ZM194.11 85.665V86.2042H194.076C193.669 86.2042 193.296 86.3392 193.024 86.5752C192.719 86.8447 192.549 87.2157 192.481 87.654H194.11V88.126H192.447C192.481 88.598 192.651 88.9689 192.956 89.2385C193.262 89.5419 193.669 89.6769 194.11 89.6769V90.2163C193.5 90.2163 192.956 89.98 192.549 89.5417C192.108 89.1035 191.87 88.5641 191.87 87.9572C191.87 87.2829 192.108 86.7437 192.515 86.3053C192.956 85.901 193.465 85.6986 194.11 85.665ZM187.016 90.2165V89.7105H187.05C187.491 89.7105 187.864 89.5083 188.204 89.1713C188.509 88.834 188.679 88.3958 188.679 87.9238C188.679 87.4517 188.509 87.0473 188.204 86.71C187.864 86.373 187.491 86.2044 187.05 86.2044H187.016V85.6987H187.084C187.423 85.6987 187.695 85.7661 188 85.901C188.27 86.0347 188.503 86.2313 188.679 86.4739V85.7997H189.222V90.0816H188.679V89.4073C188.509 89.6769 188.272 89.8456 187.966 90.0142C187.695 90.149 187.355 90.2161 187.016 90.2161L187.016 90.2165ZM190.648 90.0814H190.105V85.7995H190.614V86.3051C190.75 86.1032 190.92 85.9682 191.055 85.8669C191.225 85.7659 191.429 85.7322 191.632 85.7322V86.3391C191.293 86.3727 191.021 86.4738 190.886 86.6424C190.75 86.8113 190.648 87.1144 190.648 87.4853V90.0814ZM187.016 85.6989L187.016 86.2044C186.575 86.2044 186.201 86.3732 185.862 86.71C185.556 87.0473 185.386 87.4855 185.386 87.9911C185.386 88.4631 185.556 88.8676 185.862 89.2049C186.201 89.5419 186.574 89.6769 187.016 89.7105V90.2165C186.405 90.2165 185.862 89.9801 185.454 89.5758C185.013 89.1376 184.809 88.598 184.809 87.9574C184.809 87.3169 185.013 86.7775 185.454 86.3394C185.862 85.9346 186.405 85.6989 187.016 85.6989ZM178.971 86.3392V85.8333L180.431 90.0814H180.77L181.788 86.8111L182.807 90.0814H183.18L184.64 85.7995H184.029L182.976 89.0025L181.992 85.7995H181.585L180.6 89.0025L179.548 85.7995H178.971V86.3394L178.971 86.3392ZM178.971 85.8333V86.3392H178.156V90.0816H177.613V86.3392H176.799V85.7997H177.613V84.4176H178.156V85.7999H178.971V85.8333ZM172.114 90.2165V89.6769H172.148C172.59 89.6769 172.997 89.5083 173.302 89.1713C173.608 88.8676 173.778 88.4294 173.778 87.9238C173.778 87.4182 173.608 87.0135 173.302 86.6762C172.997 86.3728 172.59 86.2042 172.114 86.2042V85.665C172.725 85.665 173.269 85.901 173.71 86.3053C174.151 86.7435 174.355 87.2833 174.355 87.8902C174.355 88.5308 174.151 89.0702 173.71 89.5421C173.269 89.9803 172.76 90.2167 172.148 90.2167L172.114 90.2165ZM175.78 90.0814H175.237V86.2715H174.66V85.7995H175.237V85.6648C175.237 85.2262 175.339 84.8892 175.577 84.6532C175.815 84.451 176.154 84.3495 176.629 84.3495H176.697V84.8219C176.357 84.8219 176.12 84.8892 175.984 85.0241C175.848 85.1588 175.78 85.3611 175.78 85.6648V85.7995H176.697V86.2715H175.78V90.0814H175.78ZM172.114 85.665V86.2042H172.08C171.639 86.2042 171.266 86.373 170.96 86.6762C170.621 87.0135 170.485 87.4517 170.485 87.9238C170.485 88.4294 170.621 88.8676 170.96 89.1713C171.266 89.5083 171.639 89.6769 172.115 89.6769V90.2165C171.504 90.2165 170.96 89.9801 170.553 89.5419C170.112 89.1036 169.874 88.5643 169.874 87.9574C169.874 87.3167 170.112 86.7775 170.553 86.3394C170.994 85.8669 171.504 85.665 172.081 85.665H172.114ZM157.858 90.2165V89.6769C158.333 89.6769 158.706 89.5083 159.046 89.1713C159.351 88.8676 159.487 88.4294 159.487 87.9238C159.487 87.4182 159.351 87.0135 159.012 86.6762C158.706 86.3728 158.333 86.2042 157.858 86.2042V85.665C158.469 85.665 158.978 85.901 159.419 86.3053C159.86 86.7435 160.098 87.2833 160.098 87.8902C160.098 88.5308 159.86 89.0702 159.453 89.5421C159.012 89.9801 158.469 90.2165 157.858 90.2165ZM160.743 85.7997H161.286V86.2717C161.456 86.1034 161.66 85.9348 161.863 85.8335C162.101 85.7661 162.339 85.6987 162.644 85.6987C162.95 85.6987 163.255 85.7661 163.492 85.867C163.73 86.0021 163.934 86.1708 164.07 86.373C164.171 86.5418 164.239 86.71 164.307 86.946C164.341 87.1482 164.375 87.4519 164.375 87.8566V90.0816H163.798V87.6878C163.798 87.1821 163.696 86.8113 163.526 86.5752C163.323 86.3392 163.017 86.2379 162.576 86.2379C162.339 86.2379 162.101 86.2715 161.931 86.373C161.727 86.474 161.592 86.6426 161.456 86.8113C161.388 86.946 161.354 87.0809 161.32 87.2159C161.286 87.3842 161.286 87.6206 161.286 87.9911V90.0816H160.743V85.7997ZM166.174 88.463H166.717C166.717 88.834 166.819 89.1036 166.989 89.3059C167.192 89.5081 167.43 89.6096 167.736 89.6096C168.075 89.6096 168.346 89.5083 168.55 89.3059C168.754 89.1036 168.856 88.8339 168.856 88.463C168.856 87.9574 168.449 87.5527 167.634 87.2831C167.566 87.2831 167.532 87.2497 167.498 87.2497C167.057 87.1144 166.785 86.9122 166.581 86.71C166.412 86.474 166.31 86.2044 166.31 85.8335C166.31 85.3952 166.446 85.0245 166.751 84.7209C167.023 84.4513 167.396 84.2827 167.837 84.2827C168.279 84.2827 168.618 84.4178 168.856 84.6874C169.127 84.957 169.263 85.328 169.297 85.7999H168.754C168.72 85.4965 168.618 85.2607 168.482 85.092C168.313 84.9234 168.109 84.8224 167.837 84.8224C167.566 84.8224 167.328 84.9234 167.159 85.092C166.955 85.2943 166.887 85.5303 166.887 85.7999C166.887 85.9687 166.887 86.0695 166.955 86.2045C167.023 86.3058 167.091 86.4068 167.226 86.4741C167.328 86.5754 167.566 86.6764 167.905 86.7778C168.109 86.8452 168.245 86.9125 168.346 86.9461C168.72 87.0812 168.992 87.2499 169.161 87.4857C169.331 87.7215 169.399 87.9913 169.399 88.3622C169.399 88.9355 169.263 89.3738 168.958 89.7107C168.652 90.048 168.245 90.2167 167.736 90.2167C167.294 90.2167 166.887 90.048 166.616 89.7443C166.31 89.4073 166.174 89.0027 166.174 88.4635V88.463H166.174ZM157.858 85.665V86.2042H157.824C157.383 86.2042 156.975 86.373 156.67 86.6762C156.364 87.0135 156.195 87.4517 156.195 87.9238C156.195 88.4294 156.364 88.8676 156.67 89.1713C157.009 89.5083 157.382 89.6769 157.858 89.6769V90.2165C157.212 90.2165 156.704 89.9801 156.263 89.5419C155.821 89.1036 155.617 88.5643 155.617 87.9574C155.617 87.3167 155.821 86.7775 156.262 86.3394C156.704 85.8669 157.213 85.665 157.824 85.665H157.858ZM149.134 90.2165V89.7105C149.575 89.7105 149.949 89.5083 150.289 89.1713C150.594 88.834 150.764 88.3958 150.764 87.9238C150.764 87.4517 150.594 87.0473 150.289 86.71C149.949 86.373 149.576 86.2044 149.134 86.2044V85.6987H149.168C149.508 85.6987 149.813 85.7661 150.085 85.901C150.354 86.0349 150.587 86.2314 150.764 86.4739V85.7997H151.306V90.0816H150.764V89.4073C150.594 89.6769 150.356 89.8456 150.085 90.0142C149.779 90.149 149.474 90.2161 149.134 90.2161V90.2165ZM152.563 90.0814V86.3392H151.748V85.7997H152.563V84.4176H153.14V85.7999H153.954V86.3392H153.14V90.0816L152.563 90.0814ZM154.973 85.2941H154.395V84.4176H154.973V85.2941ZM154.395 90.0814V85.7995H154.973V90.0814H154.395ZM149.134 85.6987V86.2044C148.659 86.2044 148.286 86.3732 147.946 86.71C147.64 87.0473 147.471 87.4855 147.471 87.9911C147.471 88.4631 147.64 88.8676 147.946 89.2049C148.286 89.5419 148.659 89.6769 149.134 89.7105V90.2165H149.1C148.489 90.2165 147.946 89.9801 147.539 89.5758C147.098 89.1376 146.894 88.598 146.894 87.9574C146.894 87.3169 147.098 86.7775 147.539 86.3394C147.946 85.9346 148.489 85.6987 149.134 85.6987H149.134ZM142.21 90.2165V89.6769C142.685 89.6769 143.058 89.5083 143.398 89.1713C143.703 88.8676 143.873 88.4294 143.873 87.9238C143.873 87.4182 143.703 87.0135 143.398 86.6762C143.058 86.3728 142.685 86.2042 142.21 86.2042V85.665C142.821 85.665 143.33 85.901 143.771 86.3053C144.212 86.7435 144.45 87.2833 144.45 87.8902C144.45 88.5308 144.212 89.0702 143.805 89.5421C143.364 89.9801 142.82 90.2165 142.21 90.2165ZM145.638 90.0814H145.095V85.7995H145.604V86.3051C145.74 86.1032 145.91 85.9682 146.045 85.8669C146.215 85.7659 146.419 85.7322 146.623 85.7322V86.3391C146.283 86.3727 146.045 86.4738 145.876 86.6424C145.74 86.8113 145.638 87.1144 145.638 87.4853V90.0814ZM142.21 85.665V86.2042H142.176C141.734 86.2042 141.361 86.373 141.021 86.6762C140.716 87.0135 140.546 87.4517 140.546 87.9238C140.546 88.4294 140.716 88.8676 141.021 89.1713C141.361 89.5083 141.734 89.6769 142.21 89.6769V90.2165C141.599 90.2165 141.055 89.9801 140.614 89.5419C140.207 89.1036 139.969 88.5643 139.969 87.9574C139.969 87.3167 140.207 86.7775 140.614 86.3394C141.055 85.8669 141.565 85.665 142.175 85.665H142.21ZM137.322 90.2165V89.7105C137.763 89.6771 138.136 89.5083 138.476 89.1713C138.782 88.834 138.951 88.4294 138.951 87.9238C138.951 87.4517 138.782 87.0473 138.476 86.71C138.136 86.373 137.763 86.2044 137.322 86.2044V85.6987H137.355C137.966 85.6987 138.476 85.901 138.917 86.3394C139.324 86.7777 139.528 87.3172 139.528 87.9575C139.528 88.598 139.324 89.1377 138.883 89.5421C138.476 89.9801 137.933 90.2165 137.322 90.2165ZM137.322 85.6987V86.2044H137.288C136.847 86.2044 136.473 86.3732 136.134 86.7439C135.828 87.0809 135.658 87.4855 135.658 87.9911C135.658 88.4631 135.828 88.834 136.168 89.1713C136.473 89.5419 136.846 89.7105 137.288 89.7105H137.321V90.2165H137.288C136.948 90.2165 136.677 90.1488 136.405 90.0142C136.134 89.8792 135.896 89.7105 135.658 89.4409V90.0816H135.115V84.4176H135.658V86.5077C135.896 86.2381 136.168 86.0357 136.439 85.9012C136.711 85.7659 136.983 85.6987 137.322 85.6987ZM132.06 90.2167V89.7105C132.502 89.7105 132.909 89.5083 133.214 89.1713C133.554 88.834 133.724 88.3958 133.724 87.9238C133.724 87.4517 133.554 87.0473 133.214 86.71C132.909 86.373 132.502 86.2044 132.094 86.2044H132.06V85.6987H132.094C132.434 85.6987 132.739 85.7661 133.011 85.901C133.282 86.0357 133.52 86.2379 133.724 86.4739V85.7997H134.266V90.0816H133.724V89.4073C133.554 89.6769 133.316 89.8456 133.011 90.0142C132.705 90.149 132.4 90.2161 132.06 90.2161V90.2167ZM132.06 85.6987V86.2044C131.619 86.2044 131.212 86.3732 130.906 86.71C130.567 87.0473 130.397 87.4855 130.397 87.9911C130.397 88.4631 130.567 88.8676 130.906 89.2049C131.212 89.5419 131.619 89.6769 132.06 89.7105V90.2167C131.415 90.2167 130.906 89.9801 130.465 89.5758C130.058 89.1376 129.82 88.598 129.82 87.9574C129.82 87.3169 130.058 86.7775 130.465 86.3394C130.906 85.9346 131.415 85.6987 132.06 85.6987ZM124.253 90.2167V89.6769C124.728 89.6769 125.102 89.5083 125.407 89.1713C125.747 88.8676 125.883 88.4294 125.883 87.9238C125.883 87.4182 125.747 87.0135 125.407 86.6762C125.102 86.3728 124.728 86.2042 124.253 86.2042V85.665C124.864 85.665 125.373 85.901 125.814 86.3053C126.256 86.7435 126.493 87.2833 126.493 87.8902C126.493 88.5308 126.256 89.0702 125.814 89.5421C125.407 89.9801 124.864 90.2167 124.253 90.2167ZM127.138 90.0814V84.4174H127.681V90.0814H127.138ZM128.598 90.0814V84.4174H129.141V90.0814H128.598ZM124.253 85.665V86.2042H124.219C123.778 86.2042 123.371 86.373 123.065 86.6762C122.76 87.0135 122.59 87.4517 122.59 87.9238C122.59 88.4294 122.76 88.8676 123.065 89.1713C123.371 89.5083 123.778 89.6769 124.253 89.6769V90.2167C123.608 90.2167 123.099 89.9801 122.658 89.5419C122.217 89.1036 122.013 88.5643 122.013 87.9574C122.013 87.3167 122.217 86.7775 122.658 86.3394C123.099 85.8669 123.608 85.665 124.219 85.665H124.253ZM111.287 90.2165V89.6432C111.524 89.6098 111.728 89.5419 111.898 89.4072C112.102 89.2385 112.305 89.0027 112.509 88.6316L111.287 87.5191V86.6088C111.558 86.4738 111.728 86.3728 111.864 86.2044C112 86.0355 112.067 85.8333 112.067 85.5973C112.067 85.395 112 85.1928 111.864 85.0581C111.694 84.8894 111.524 84.8221 111.321 84.8221H111.287V84.2825H111.355C111.694 84.2825 112 84.4176 112.271 84.6872C112.543 84.9568 112.679 85.2605 112.679 85.631C112.679 85.9348 112.577 86.1706 112.373 86.4404C112.203 86.6764 111.932 86.845 111.558 87.0137L112.747 88.0926L113.391 86.3055H114.036L113.154 88.4633L114.444 89.6435L114.071 90.0482L112.916 89.003C112.747 89.4077 112.509 89.6773 112.204 89.9133C111.932 90.0821 111.626 90.1829 111.287 90.2167L111.287 90.2165ZM120.825 85.867C120.587 85.5301 120.282 85.2605 119.977 85.0918C119.671 84.9232 119.297 84.8558 118.89 84.8558C118.245 84.8558 117.702 85.0918 117.261 85.5301C116.786 86.0021 116.582 86.5752 116.582 87.2159C116.582 87.9238 116.786 88.4971 117.261 88.9693C117.702 89.4411 118.245 89.6769 118.89 89.6769C119.298 89.6769 119.637 89.576 119.977 89.4073C120.282 89.2723 120.553 89.0029 120.791 88.6995H121.47C121.198 89.1715 120.859 89.5421 120.418 89.812C119.977 90.0816 119.467 90.2167 118.924 90.2167C118.076 90.2167 117.397 89.9129 116.82 89.3398C116.242 88.7669 115.971 88.059 115.971 87.2161C115.971 86.8116 116.039 86.4405 116.209 86.0695C116.345 85.7325 116.582 85.3952 116.887 85.1256C117.159 84.856 117.465 84.62 117.804 84.4849C118.143 84.3499 118.517 84.2827 118.89 84.2827C119.467 84.2827 119.977 84.4178 120.452 84.6874C120.893 84.9907 121.267 85.3616 121.504 85.8674H120.825V85.867ZM111.287 84.2825V84.8221C111.083 84.8221 110.88 84.8894 110.744 85.0581C110.608 85.1928 110.54 85.395 110.54 85.631C110.54 85.7999 110.574 85.9683 110.676 86.137C110.778 86.2717 110.947 86.4404 111.185 86.6426C111.219 86.6426 111.253 86.6092 111.287 86.6092V87.5191L110.981 87.2497C110.71 87.3847 110.472 87.553 110.336 87.7553C110.201 87.9913 110.099 88.2273 110.099 88.4974C110.099 88.8342 110.201 89.1038 110.404 89.3402C110.642 89.5421 110.88 89.6435 111.219 89.6435H111.287V90.2168H111.185C110.71 90.2168 110.336 90.0482 109.997 89.7109C109.691 89.3739 109.522 88.9693 109.522 88.4974C109.522 88.1601 109.624 87.8232 109.793 87.5532C109.997 87.2499 110.269 87.014 110.608 86.879C110.336 86.643 110.167 86.4407 110.099 86.2722C109.997 86.07 109.929 85.8677 109.929 85.6314C109.929 85.2608 110.065 84.9571 110.337 84.6875C110.608 84.4512 110.913 84.3161 111.287 84.2825ZM105.279 91.7672V91.2277C105.754 91.2277 106.161 91.093 106.467 90.7557C106.772 90.4184 106.908 89.9801 106.908 89.4408V89.3395C106.704 89.6094 106.467 89.8454 106.195 89.9801C105.924 90.1152 105.618 90.1824 105.313 90.1824H105.279V89.6768C105.686 89.6768 106.094 89.5081 106.399 89.1712C106.738 88.8339 106.908 88.4292 106.908 87.9574C106.908 87.4855 106.738 87.0471 106.399 86.7098C106.093 86.3728 105.72 86.2042 105.279 86.2042V85.6986C105.618 85.6986 105.924 85.7659 106.195 85.9008C106.467 86.0018 106.705 86.2378 106.908 86.5075V85.7995H107.451V89.3734C107.451 90.1486 107.247 90.7219 106.874 91.1268C106.501 91.5648 105.991 91.7672 105.313 91.7672H105.279ZM105.279 85.6987V86.2044C104.803 86.2044 104.464 86.3732 104.158 86.6764C103.819 87.0137 103.649 87.4185 103.649 87.9239C103.649 88.396 103.819 88.8342 104.158 89.1715C104.464 89.5085 104.803 89.6771 105.279 89.6771V90.1827C104.668 90.1827 104.124 89.9805 103.717 89.5421C103.276 89.1038 103.072 88.5644 103.072 87.9241C103.072 87.2834 103.276 86.7777 103.717 86.3396C104.125 85.9012 104.667 85.6987 105.245 85.6987H105.279ZM105.279 91.2277V91.7672C104.803 91.7672 104.43 91.6322 104.091 91.4299C103.717 91.1603 103.513 90.8566 103.412 90.4523H104.057C104.125 90.6883 104.294 90.8906 104.498 91.0253C104.736 91.1603 104.939 91.2277 105.279 91.2277ZM87.7633 90.2167V89.7105C88.2045 89.7105 88.5781 89.5083 88.9177 89.1713C89.257 88.834 89.3928 88.3958 89.3928 87.9238C89.3928 87.4517 89.257 87.0473 88.9175 86.71C88.5781 86.373 88.2047 86.2044 87.7975 86.2044H87.7635V85.6987H87.7975C88.1369 85.6987 88.4425 85.7661 88.7139 85.901C88.9834 86.0348 89.2164 86.2314 89.3928 86.4739V85.7997H89.9358V90.0816H89.3928V89.4073C89.2232 89.6769 88.9855 89.8456 88.7139 90.0142C88.4083 90.149 88.1031 90.2161 87.7635 90.2161V90.2165L87.7633 90.2167ZM91.3955 90.0814H90.8183V85.7995H91.3613V86.3051C91.4973 86.1032 91.6329 85.9682 91.8025 85.8669C91.9385 85.7659 92.1422 85.7322 92.3456 85.7322V86.3391C92.0062 86.3727 91.7686 86.4738 91.5989 86.6424C91.4629 86.8113 91.3953 87.1144 91.3953 87.4853V90.0814H91.3955ZM92.855 85.7997H93.398V86.2717C93.568 86.1034 93.7375 85.9348 93.9752 85.8335C94.2129 85.7661 94.4505 85.6987 94.7561 85.6987C95.0613 85.6987 95.3329 85.7661 95.6044 85.867C95.8422 86.0021 96.0456 86.1708 96.1816 86.373C96.2834 86.5418 96.3512 86.71 96.3852 86.946C96.453 87.1482 96.453 87.4519 96.453 87.8566V90.0816H95.91V87.6878C95.91 87.1821 95.8082 86.8113 95.6385 86.5752C95.4349 86.3392 95.1293 86.2379 94.6881 86.2379C94.4165 86.2379 94.2129 86.2715 94.0092 86.373C93.8394 86.474 93.6698 86.6426 93.568 86.8113C93.5 86.946 93.4662 87.0809 93.432 87.2159C93.3984 87.3842 93.3984 87.6206 93.3984 87.9911V90.0816H92.8552V85.7997H92.855ZM97.9125 85.2941H97.3696V84.4176H97.9125V85.2941ZM97.3696 90.0814V85.7995H97.9125V90.0814H97.3696ZM98.7955 85.7997H99.3384V86.2717C99.5083 86.1034 99.712 85.9348 99.9494 85.8335C100.153 85.7661 100.425 85.6987 100.696 85.6987C101.036 85.6987 101.307 85.7661 101.545 85.867C101.816 86.0021 101.986 86.1708 102.156 86.373C102.257 86.5418 102.326 86.71 102.359 86.946C102.393 87.1482 102.427 87.4519 102.427 87.8566V90.0816H101.884V87.6878C101.884 87.1821 101.782 86.8113 101.579 86.5752C101.375 86.3392 101.069 86.2379 100.628 86.2379C100.391 86.2379 100.187 86.2715 99.9832 86.373C99.7796 86.474 99.6436 86.6426 99.542 86.8113C99.4742 86.946 99.406 87.0809 99.3722 87.2159C99.3722 87.3842 99.3385 87.6206 99.3385 87.9911V90.0816H98.7955V85.7997ZM87.7633 85.6987V86.2044C87.2881 86.2044 86.9148 86.3732 86.6092 86.71C86.2698 87.0473 86.1 87.4855 86.1 87.9911C86.1 88.4631 86.27 88.8676 86.6092 89.2049C86.9148 89.5419 87.2881 89.6769 87.7633 89.7105V90.2167C87.1184 90.2167 86.5754 89.9801 86.168 89.5758C85.7268 89.1376 85.523 88.598 85.523 87.9574C85.523 87.3169 85.7606 86.7775 86.168 86.3394C86.6094 85.9346 87.1188 85.6987 87.7633 85.6987ZM82.8756 90.2167V89.6769C83.181 89.6769 83.4864 89.6096 83.758 89.4409C84.0109 89.2607 84.2103 89.0162 84.3353 88.7331H84.9801C84.7765 89.2051 84.5049 89.576 84.1315 89.8456C83.7582 90.0816 83.3508 90.2161 82.8756 90.2161V90.2167ZM82.8756 88.126V87.654H84.5049C84.4031 87.1816 84.1993 86.8111 83.9277 86.5751C83.6562 86.3391 83.2826 86.2042 82.8756 86.2042V85.6646H82.9094C83.5544 85.6646 84.0975 85.901 84.5049 86.3392C84.9121 86.7775 85.1157 87.384 85.1157 88.0926V88.126H82.8756ZM71.9454 86.946H74.3555V87.5193H71.9454V89.5419H74.3555V90.0814H71.3685V84.4174H74.3555V84.9566H71.9454V86.946ZM82.8756 85.665V86.2042H82.8076C82.4003 86.2042 82.0608 86.3392 81.7553 86.5752C81.4499 86.8447 81.2801 87.2157 81.2123 87.654H82.8758V88.126H81.2123C81.2463 88.598 81.4159 88.9689 81.7215 89.2385C82.0271 89.5419 82.4004 89.6768 82.8759 89.6768V90.2163C82.2307 90.2163 81.7215 89.98 81.2803 89.5417C80.839 89.1035 80.6352 88.5641 80.6352 87.9572C80.6352 87.2829 80.8389 86.7437 81.2803 86.3049C81.6875 85.901 82.2305 85.6987 82.8756 85.665ZM76.9691 87.6878V88.1934H75.1021V87.6878H76.9691ZM80.4654 90.0814H77.8857V84.4174H78.4287V89.5421H80.4654V90.0814Z" fill="white"/>
</svg>
