<svg width="769" height="494" viewBox="0 0 769 494" fill="none" xmlns="http://www.w3.org/2000/svg">
<path opacity="0.02" d="M421.7 466.724L422.538 26.7446C422.548 25.9149 422.308 25.1014 421.85 24.4089C421.391 23.7163 420.735 23.1765 419.966 22.859L371.39 6.24609C370.773 6.01971 370.11 5.948 369.459 6.03725C368.808 6.12651 368.19 6.37397 367.657 6.75788C367.125 7.1418 366.696 7.65033 366.407 8.23868C366.118 8.82704 365.98 9.47716 366.002 10.1317V483.868C365.98 484.523 366.118 485.173 366.407 485.761C366.696 486.35 367.125 486.858 367.657 487.242C368.19 487.626 368.808 487.873 369.459 487.963C370.11 488.052 370.773 487.98 371.39 487.754L419.129 470.609C419.898 470.292 420.554 469.752 421.012 469.059C421.47 468.367 421.71 467.553 421.7 466.724ZM495.728 440.194V53.0746C495.7 52.266 495.434 51.4835 494.962 50.8252C494.49 50.1668 493.834 49.6617 493.076 49.3731L457.877 37.279C457.193 36.9379 456.436 36.7664 455.671 36.7789C454.906 36.7914 454.155 36.9875 453.483 37.3508C452.81 37.714 452.235 38.2336 451.806 38.8654C451.378 39.4973 451.108 40.2227 451.021 40.9804L450.55 453.019C450.638 453.777 450.907 454.503 451.335 455.135C451.764 455.766 452.339 456.286 453.012 456.649C453.685 457.012 454.435 457.208 455.2 457.221C455.965 457.233 456.722 457.062 457.406 456.721L493.076 443.896C493.834 443.607 494.49 443.102 494.962 442.444C495.434 441.785 495.7 441.003 495.728 440.194ZM563.096 416.663L563.247 77.0192C563.214 76.2135 562.943 75.4355 562.47 74.7821C561.996 74.1286 561.339 73.6286 560.582 73.3444L530.856 63.0942C530.158 62.7362 529.385 62.5499 528.6 62.5509C527.816 62.5518 527.043 62.7401 526.346 63.0999C525.65 63.4597 525.05 63.9805 524.596 64.6188C524.143 65.2572 523.85 65.9944 523.741 66.769L523.891 427.231C524 428.006 524.294 428.743 524.747 429.381C525.2 430.02 525.8 430.54 526.497 430.9C527.194 431.26 527.967 431.448 528.751 431.449C529.536 431.45 530.309 431.264 531.007 430.906L560.432 420.338C561.189 420.053 561.845 419.553 562.319 418.9C562.793 418.247 563.063 417.468 563.096 416.663ZM677.73 376.328L678.034 117.722C678.036 117.138 677.877 116.565 677.575 116.065C677.273 115.565 676.839 115.157 676.321 114.886L655.985 107.909C655.502 107.663 654.964 107.546 654.422 107.569C653.881 107.592 653.355 107.754 652.895 108.039C652.434 108.325 652.056 108.724 651.796 109.198C651.536 109.672 651.403 110.204 651.411 110.744L652.177 383.255C652.17 383.795 652.303 384.328 652.563 384.802C652.823 385.276 653.201 385.675 653.661 385.96C654.121 386.246 654.648 386.407 655.189 386.43C655.73 386.453 656.269 386.336 656.751 386.091L676.017 379.164C676.536 378.892 676.969 378.485 677.272 377.985C677.574 377.485 677.732 376.911 677.73 376.328ZM622.771 395.059L623.398 98.2188C623.364 97.4432 623.107 96.6935 622.659 96.0585C622.211 95.4235 621.59 94.9297 620.87 94.6354L600.617 87.6491C597.273 86.0778 593.112 88.0643 593.112 91.2325L591.26 402.767C591.26 405.936 595.42 407.922 598.764 406.351L620.243 398.642C620.963 398.348 621.585 397.854 622.033 397.219C622.481 396.584 622.737 395.834 622.771 395.059ZM727.73 357.346L728.556 136.122C728.57 135.478 728.412 134.843 728.097 134.28C727.782 133.718 727.323 133.25 726.766 132.924L712.166 127.907C711.652 127.664 711.083 127.56 710.515 127.608C709.948 127.655 709.404 127.851 708.937 128.176C708.471 128.501 708.099 128.943 707.859 129.457C707.619 129.972 707.52 130.54 707.572 131.105L706.046 362.895C705.994 363.46 706.093 364.028 706.333 364.543C706.573 365.057 706.945 365.499 707.411 365.824C707.878 366.149 708.422 366.345 708.99 366.392C709.557 366.439 710.126 366.336 710.64 366.093L725.94 360.544C726.497 360.218 726.956 359.75 727.271 359.188C727.586 358.625 727.744 357.99 727.73 357.346ZM769 343.05V150.544C769.003 149.827 768.814 149.122 768.453 148.502C768.092 147.882 767.572 147.369 766.946 147.016L758.252 144.233C757.646 143.904 756.963 143.74 756.273 143.756C755.583 143.772 754.91 143.969 754.32 144.326C753.73 144.683 753.245 145.188 752.912 145.791C752.579 146.394 752.411 147.073 752.425 147.761V346.238C752.411 346.926 752.579 347.606 752.912 348.208C753.245 348.811 753.73 349.317 754.32 349.674C754.91 350.031 755.583 350.228 756.273 350.244C756.963 350.26 757.646 350.096 758.252 349.767L766.946 346.579C767.572 346.226 768.092 345.713 768.453 345.092C768.814 344.472 769.003 343.767 769 343.05Z" fill="white"/>
<path opacity="0.02" d="M312.038 493.701L15.2023 449.159C11.0919 448.665 7.29588 446.718 4.50563 443.67C1.71537 440.623 0.116453 436.678 0 432.554V61.4457C0.116493 57.3223 1.71543 53.3777 4.50568 50.3301C7.29592 47.2826 11.0919 45.3348 15.2023 44.8415L312.038 0.299049C314.534 -0.164449 317.101 -0.0884366 319.565 0.52202C322.029 1.13248 324.332 2.26316 326.32 3.83746C328.307 5.41175 329.932 7.39295 331.085 9.64712C332.237 11.9013 332.89 14.3758 333 16.9033V477.097C332.89 479.624 332.237 482.099 331.085 484.353C329.932 486.607 328.307 488.588 326.32 490.163C324.332 491.737 322.029 492.868 319.565 493.478C317.101 494.088 314.534 494.165 312.038 493.701Z" fill="white"/>
</svg>
