<svg width="222" height="147" viewBox="0 0 222 147" fill="none" xmlns="http://www.w3.org/2000/svg">
<path d="M111.891 78.9698C116.788 83.381 121.426 88.5476 128.259 89.3016C128.722 92.9007 126.653 95.6399 123.975 97.8102C130.466 98.3284 136.599 96.5355 142.485 94.0117C145.48 95.6074 145.665 98.7506 145.851 101.761C150.118 97.3109 154.529 92.759 156.253 86.7187C159.295 86.3923 161.546 88.0886 163.901 89.7574C163.866 83.3155 163.7 76.8179 159.924 71.3728L168.491 67.4224C164.052 63.6537 159.095 57.1509 152.581 58.0022L156.712 49.4935C150.162 49.7945 143.664 50.5026 138.049 54.0517L135.142 45.2393C131.59 49.9784 125.381 55.2327 125.811 61.6487C123.363 62.1477 119.266 58.6389 116.633 56.9386C116.522 63.928 116.127 71.2097 121.987 75.9309C121.961 77.916 114.811 78.4863 111.891 78.9698Z" fill="white"/>
<path d="M155.363 73.7468C155.363 77.6959 153.816 81.4832 151.062 84.2756C148.308 87.0681 144.572 88.6368 140.678 88.6368C136.783 88.6368 133.047 87.0681 130.293 84.2756C127.539 81.4832 125.992 77.6959 125.992 73.7468C125.992 71.7914 126.372 69.8551 127.11 68.0486C127.848 66.242 128.93 64.6006 130.293 63.2179C131.657 61.8352 133.276 60.7384 135.058 59.9901C136.839 59.2418 138.749 58.8567 140.678 58.8567C142.606 58.8567 144.516 59.2418 146.297 59.9901C148.079 60.7384 149.698 61.8352 151.062 63.2179C152.425 64.6006 153.507 66.242 154.245 68.0486C154.983 69.8551 155.363 71.7914 155.363 73.7468Z" stroke="#004F98" stroke-width="4"/>
<path d="M140.768 73.965L140.723 74.0083C140.706 73.9901 140.702 73.9738 140.702 73.965C140.702 73.9563 140.706 73.9399 140.723 73.9217L140.768 73.965ZM140.768 73.965L140.723 74.0083C140.739 74.024 140.764 74.0389 140.796 74.0443C140.805 74.0457 140.813 74.0464 140.822 74.0464C140.831 74.0464 140.84 74.0457 140.848 74.0443C140.881 74.0389 140.906 74.024 140.921 74.0083C140.939 73.9901 140.942 73.9738 140.942 73.965C140.942 73.9562 140.939 73.9399 140.921 73.9217C140.906 73.906 140.881 73.8911 140.848 73.8857C140.84 73.8843 140.831 73.8836 140.822 73.8836C140.813 73.8836 140.805 73.8843 140.796 73.8857C140.764 73.8911 140.739 73.906 140.723 73.9217L140.768 73.965Z" fill="#004F98" stroke="#004F98" stroke-width="4.78278"/>
<path d="M25.6172 89.9128V55.6382H37.1198V67.9419C44.5167 59.1381 57.8708 61.7272 60.0146 71.9192L60.1228 90.0761L48.5488 89.8612L48.657 77.1675C48.6663 76.0713 47.3856 73.521 46.6018 72.9936C42.4639 70.6284 38.6318 73.5938 37.1198 77.3985V89.9128H25.6172Z" fill="white"/>
<path d="M70.4349 63.3554C64.9522 63.5941 59.6269 67.8027 59.6235 75.7414C58.4782 87.6054 72.7758 94.1254 79.5872 85.5185V88.155H87.5505V64.4264L79.3106 64.4539L79.3659 67.2552C77.0643 64.513 73.7245 63.2121 70.4349 63.3554ZM73.9188 70.6058C76.9805 70.6058 79.4489 73.1734 79.4489 76.3182C79.4489 79.463 76.9805 82.0031 73.9188 82.0031C70.8571 82.0031 68.3611 79.463 68.3611 76.3182C68.3611 73.1734 70.857 70.6058 73.9188 70.6058Z" fill="white"/>
<path d="M84.8984 60.0322L96.401 89.9127H106.134L117.637 60.0322H106.134L101.268 75.8513L96.401 60.0322H84.8984ZM166.301 89.9127H176.919V77.609L183.998 89.9127H196.385L185.767 74.9724L195.5 60.0322H183.998L176.919 72.3359V60.0322H166.301V89.9127Z" fill="white"/>
</svg>
