<svg width="56" height="56" viewBox="0 0 56 56" fill="none" xmlns="http://www.w3.org/2000/svg">
<path d="M52.3157 9.33337H19.5494V15.2861H6.18544L0 25.7989V41.1441H4.941C5.34839 42.7234 6.27675 44.1237 7.57946 45.1237C8.88218 46.1238 10.485 46.6667 12.1349 46.6667C13.7847 46.6667 15.3876 46.1238 16.6903 45.1237C17.993 44.1237 18.9213 42.7234 19.3287 41.1441H36.0215C36.4289 42.7234 37.3572 44.1237 38.6599 45.1237C39.9626 46.1238 41.5655 46.6667 43.2153 46.6667C44.8652 46.6667 46.468 46.1238 47.7707 45.1237C49.0734 44.1237 50.0018 42.7234 50.4092 41.1441H56V9.33337H52.3218H52.3157ZM8.30651 18.9196H19.5494V24.5635H4.99004L8.30651 18.9196ZM3.67816 28.1788H19.5494V37.5106H19.3287C18.9213 35.9313 17.993 34.5311 16.6903 33.531C15.3876 32.5309 13.7847 31.988 12.1349 31.988C10.485 31.988 8.88218 32.5309 7.57946 33.531C6.27675 34.5311 5.34839 35.9313 4.941 37.5106H3.67816V28.1788ZM12.1379 43.0335C11.3944 43.0335 10.6677 42.8156 10.0495 42.4074C9.43144 41.9993 8.94979 41.4191 8.66554 40.7405C8.3813 40.0618 8.30724 39.3151 8.45274 38.5949C8.59823 37.8746 8.95674 37.2132 9.4829 36.6943C10.0091 36.1754 10.6792 35.8223 11.4086 35.6797C12.1379 35.5372 12.8937 35.6116 13.5803 35.8935C14.2668 36.1754 14.8533 36.6521 15.2655 37.2633C15.6776 37.8746 15.897 38.5929 15.8958 39.3274C15.8958 40.3119 15.4999 41.2561 14.7951 41.9522C14.0904 42.6484 13.1346 43.0395 12.1379 43.0395V43.0335ZM43.2123 43.0335C42.4688 43.0335 41.742 42.8156 41.1239 42.4074C40.5058 41.9993 40.0241 41.4191 39.7399 40.7405C39.4556 40.0618 39.3816 39.3151 39.5271 38.5949C39.6726 37.8746 40.0311 37.2132 40.5572 36.6943C41.0834 36.1754 41.7536 35.8223 42.4829 35.6797C43.2123 35.5372 43.968 35.6116 44.6546 35.8935C45.3411 36.1754 45.9276 36.6521 46.3398 37.2633C46.752 37.8746 46.9713 38.5929 46.9701 39.3274C46.9701 40.3119 46.5742 41.2561 45.8695 41.9522C45.1647 42.6484 44.2089 43.0395 43.2123 43.0395V43.0335ZM50.4031 37.5106C49.9957 35.9313 49.0673 34.5311 47.7646 33.531C46.4619 32.5309 44.859 31.988 43.2092 31.988C41.5593 31.988 39.9565 32.5309 38.6538 33.531C37.3511 34.5311 36.4227 35.9313 36.0153 37.5106H23.2276V12.9668H52.3157V37.5106H50.4031Z" fill="#004F98"/>
<path d="M46.5108 22.8563H27.3047V26.4898H46.5108V22.8563Z" fill="#004F98"/>
<path d="M33.6373 28.9115H27.3047V32.5449H33.6373V28.9115Z" fill="#004F98"/>
<path d="M40.3805 16.7994H27.3047V20.4329H40.3805V16.7994Z" fill="#004F98"/>
</svg>
