<svg width="56" height="56" viewBox="0 0 56 56" fill="none" xmlns="http://www.w3.org/2000/svg">
<path d="M21.4628 49L17.8104 41.7241C16.74 42.0082 15.649 41.7575 14.9459 41.0577C14.2183 40.3261 13.993 39.2534 14.277 38.191L7 34.5403L10.2311 31.3079L17.8477 32.0212L24.5733 24.3605L7.13251 13.9125L12.3433 8.70193L32.9191 15.881L39.9256 8.87411C41.065 7.73552 42.89 7 44.577 7C45.8831 7 46.9939 7.41973 47.7882 8.21396C49.814 10.2396 49.0975 14.1029 47.1296 16.0746L40.1192 23.0823L47.2994 43.657L42.0894 48.8691L31.6416 31.43L23.9821 38.1552L24.6939 45.7715L21.4628 49ZM32.2169 27.7572L42.5623 45.028L44.5587 43.0309L37.3785 22.4554L45.4451 14.3925C46.5686 13.2666 47.0907 10.8839 46.1045 9.89685C45.6776 9.46998 45.0372 9.38032 44.5762 9.38032C43.5042 9.38032 42.3116 9.85321 41.6078 10.557L33.5444 18.6207L12.9694 11.4417L10.9722 13.4388L28.2447 23.786L18.834 34.5046L11.1229 33.7834L11.0142 33.8921L17.5827 37.1865L16.8114 38.3116C16.5091 38.7535 16.4726 39.2185 16.6297 39.3756C16.7027 39.4478 16.8321 39.4636 16.9273 39.4636C17.1621 39.4636 17.4414 39.3652 17.6938 39.1931L18.8181 38.425L22.1119 44.9868L22.2214 44.8781L21.5001 37.1674L32.2169 27.7572Z" fill="#004F98" stroke="#004F98"/>
</svg>
