<svg width="56" height="56" viewBox="0 0 56 56" fill="none" xmlns="http://www.w3.org/2000/svg">
<path d="M41.3601 23.3325V13.9996H45.813V9.3331H30.2278V4.66663H25.7748V9.3331H10.1896V13.9996H14.6425V23.3325H4.66797L12.9727 45.0783L12.6832 44.845C10.8011 42.9987 8.31464 41.9798 5.73667 41.9984V46.6649C6.51193 46.6581 7.28049 46.8158 7.99603 47.1286C8.71157 47.4414 9.35928 47.9027 9.90016 48.4848C11.7957 50.3164 14.2795 51.3333 16.8579 51.3333C19.4362 51.3333 21.92 50.3164 23.8156 48.4848C24.362 47.907 25.0123 47.4484 25.7288 47.1355C26.4453 46.8225 27.2139 46.6614 27.9902 46.6614C28.7664 46.6614 29.535 46.8225 30.2515 47.1355C30.9681 47.4484 31.6183 47.907 32.1648 48.4848C34.0627 50.3114 36.5457 51.3249 39.1225 51.3249C41.6993 51.3249 44.1823 50.3114 46.0802 48.4848C46.6244 47.9009 47.2759 47.4387 47.9953 47.1259C48.7147 46.8131 49.4871 46.6563 50.2659 46.6649V41.9984C47.6807 41.9762 45.1861 42.9952 43.2971 44.845L43.0299 45.0549L51.3346 23.3325H41.3601ZM19.0954 13.9996H36.9072V23.3325H19.0954V13.9996ZM21.0325 44.845C20.2599 45.6023 19.33 46.1614 18.3162 46.4782L11.2583 27.999H25.7748V42.2317C24.0093 42.6705 22.3781 43.5694 21.0325 44.845ZM30.2278 42.2317V27.999H44.7443L37.6864 46.5016C36.6622 46.1821 35.7241 45.6146 34.9479 44.845C33.608 43.5736 31.985 42.6751 30.2278 42.2317Z" fill="#0B0B0B"/>
</svg>
