<svg width="56" height="56" viewBox="0 0 56 56" fill="none" xmlns="http://www.w3.org/2000/svg">
<path d="M44.3346 7H11.668V39.9897H14.7713L11.8109 47.4742L15.6084 49L16.7313 46.1753H39.1896L40.3126 49L44.1101 47.4742L41.2313 39.9897H44.3346V7ZM40.2513 11.1237V13.1856H15.7513V11.1237H40.2513ZM15.7513 27.6186H40.2513V35.866H15.7513V27.6186ZM15.7513 23.4948V17.3093H40.2513V23.4948H15.7513ZM37.638 42.0515H18.3646L19.1813 39.9897H36.8417L37.638 42.0515Z" fill="#0B0B0B"/>
<path d="M21.8763 29.6805H17.793V33.8043H21.8763V29.6805Z" fill="#0B0B0B"/>
<path d="M38.2083 29.6805H34.125V33.8043H38.2083V29.6805Z" fill="#0B0B0B"/>
</svg>
