<svg width="34" height="34" viewBox="0 0 34 34" fill="none" xmlns="http://www.w3.org/2000/svg">
<path d="M5.98411 25.9473C4.99245 24.7164 4.21918 23.3376 3.66432 21.8109C3.10946 20.2842 2.83203 18.6687 2.83203 16.9644C2.83203 13.2482 4.05391 10.0527 6.49766 7.37795C8.94141 4.7032 11.9695 3.18831 15.582 2.83325V5.67369C12.7487 6.00507 10.3876 7.23593 8.4987 9.36625C6.60981 11.4966 5.66536 14.0293 5.66536 16.9644C5.66536 18.2899 5.86606 19.5386 6.26745 20.7102C6.66884 21.8819 7.24731 22.953 8.00286 23.9235L5.98411 25.9473ZM16.9987 31.1666C15.2751 31.1666 13.6459 30.8825 12.1112 30.3145C10.5765 29.7464 9.19523 28.9534 7.96745 27.9356L9.95078 25.9118C10.9188 26.6692 11.999 27.261 13.1914 27.6871C14.3838 28.1131 15.6529 28.3261 16.9987 28.3261C18.3445 28.3261 19.6136 28.1131 20.806 27.6871C21.9984 27.261 23.0786 26.6692 24.0466 25.9118L26.0299 27.9356C24.8022 28.9534 23.4209 29.7464 21.8862 30.3145C20.3515 30.8825 18.7223 31.1666 16.9987 31.1666ZM28.0133 25.9473L25.9945 23.9235C26.7501 22.953 27.3286 21.8819 27.7299 20.7102C28.1313 19.5386 28.332 18.2899 28.332 16.9644C28.332 14.0293 27.3876 11.4966 25.4987 9.36625C23.6098 7.23593 21.2487 6.00507 18.4154 5.67369V2.83325C22.0279 3.18831 25.056 4.7032 27.4997 7.37795C29.9435 10.0527 31.1654 13.2482 31.1654 16.9644C31.1654 18.6687 30.8879 20.2842 30.3331 21.8109C29.7782 23.3376 29.0049 24.7164 28.0133 25.9473ZM13.457 23.3554V10.5734L23.3737 16.9644L13.457 23.3554Z" fill="white"/>
</svg>
