<svg width="34" height="34" viewBox="0 0 34 34" fill="none" xmlns="http://www.w3.org/2000/svg">
<path d="M5.98411 25.9475C4.99245 24.7167 4.21918 23.3379 3.66432 21.8111C3.10946 20.2844 2.83203 18.6689 2.83203 16.9647C2.83203 13.2484 4.05391 10.0529 6.49766 7.37819C8.94141 4.70345 11.9695 3.18855 15.582 2.8335V5.67393C12.7487 6.00531 10.3876 7.23617 8.4987 9.3665C6.60981 11.4968 5.66536 14.0295 5.66536 16.9647C5.66536 18.2902 5.86606 19.5388 6.26745 20.7105C6.66884 21.8822 7.24731 22.9532 8.00286 23.9237L5.98411 25.9475ZM16.9987 31.1668C15.2751 31.1668 13.6459 30.8828 12.1112 30.3147C10.5765 29.7466 9.19523 28.9537 7.96745 27.9358L9.95078 25.912C10.9188 26.6695 11.999 27.2612 13.1914 27.6873C14.3838 28.1134 15.6529 28.3264 16.9987 28.3264C18.3445 28.3264 19.6136 28.1134 20.806 27.6873C21.9984 27.2612 23.0786 26.6695 24.0466 25.912L26.0299 27.9358C24.8022 28.9537 23.4209 29.7466 21.8862 30.3147C20.3515 30.8828 18.7223 31.1668 16.9987 31.1668ZM28.0133 25.9475L25.9945 23.9237C26.7501 22.9532 27.3286 21.8822 27.7299 20.7105C28.1313 19.5388 28.332 18.2902 28.332 16.9647C28.332 14.0295 27.3876 11.4968 25.4987 9.3665C23.6098 7.23617 21.2487 6.00531 18.4154 5.67393V2.8335C22.0279 3.18855 25.056 4.70345 27.4997 7.37819C29.9435 10.0529 31.1654 13.2484 31.1654 16.9647C31.1654 18.6689 30.8879 20.2844 30.3331 21.8111C29.7782 23.3379 29.0049 24.7167 28.0133 25.9475ZM13.457 23.3556V10.5737L23.3737 16.9647L13.457 23.3556Z" fill="#0B0B0B"/>
</svg>
