<svg width="220" height="147" viewBox="0 0 220 147" fill="none" xmlns="http://www.w3.org/2000/svg">
<path d="M192.235 91.5619C192.339 91.563 192.442 91.5426 192.538 91.502C192.634 91.4614 192.72 91.4016 192.792 91.3261C192.864 91.2507 192.92 91.1613 192.955 91.0634C192.991 90.9656 193.007 90.8614 193.001 90.7573C193.001 90.1866 192.657 89.914 191.952 89.914H190.814V92.9017H191.242V91.5993H191.768L191.78 91.6152L192.597 92.9017H193.055L192.176 91.5702L192.235 91.5619ZM191.74 91.2626H191.243V90.2526H191.873C192.198 90.2526 192.569 90.3058 192.569 90.7326C192.569 91.2233 192.193 91.2626 191.737 91.2626M25.3828 58.8935H31.7047V81.9735H43.4083V87.8209H25.3828V58.8935ZM46.2033 68.2073H52.2766V87.8101H46.2033V68.2073ZM49.2399 58.4617C49.9367 58.4618 50.6178 58.669 51.1971 59.0571C51.7764 59.4452 52.2279 59.9967 52.4944 60.6419C52.761 61.2872 52.8307 61.9971 52.6946 62.6821C52.5586 63.367 52.223 63.9961 51.7303 64.4899C51.2375 64.9837 50.6098 65.3199 49.9264 65.4561C49.243 65.5923 48.5346 65.5223 47.8909 65.2551C47.2472 64.9878 46.697 64.5352 46.3099 63.9545C45.9228 63.3738 45.7162 62.6912 45.7162 61.9928C45.7162 61.529 45.8073 61.0698 45.9844 60.6413C46.1615 60.2129 46.4211 59.8236 46.7483 59.4957C47.0755 59.1678 47.464 58.9077 47.8915 58.7303C48.319 58.5529 48.7772 58.4616 49.2399 58.4617ZM77.6817 58.889H83.755V76.1769L90.638 68.1984H98.084L90.1129 77.2738L97.9164 87.8184H90.2831L83.8359 78.1286H83.7562V87.8171H77.683L77.6817 58.889ZM55.644 68.2092H61.4763V70.8881H61.5591C62.1417 69.8878 62.9844 69.0649 63.9972 68.5072C65.01 67.9495 66.1549 67.6779 67.3097 67.7216C73.4684 67.7216 74.6021 71.7828 74.6021 77.0589V87.8089H68.5288V78.2782C68.5288 76.0032 68.4871 73.0788 65.3657 73.0788C62.2088 73.0788 61.7217 75.5561 61.7217 78.1127V87.8063H55.6485L55.644 68.2092Z" fill="white"/>
<path d="M110.878 75.7287C110.889 75.2348 110.801 74.7438 110.617 74.2852C110.434 73.8267 110.16 73.4102 109.811 73.061C109.462 72.7118 109.047 72.4372 108.589 72.2538C108.132 72.0704 107.642 71.982 107.149 71.994C106.088 71.9278 105.043 72.2823 104.24 72.9809C103.437 73.6795 102.941 74.6663 102.857 75.7287H110.878ZM116.022 84.4154C115.013 85.642 113.744 86.6283 112.308 87.3028C110.871 87.9774 109.303 88.3233 107.717 88.3155C101.644 88.3155 96.7812 84.2524 96.7812 77.9606C96.7812 71.6687 101.643 67.6075 107.717 67.6075C113.393 67.6075 116.953 71.6656 116.953 77.9606V79.8691H102.857C103.033 80.9515 103.592 81.9339 104.434 82.6352C105.275 83.3365 106.34 83.7096 107.434 83.6856C108.299 83.6802 109.148 83.4582 109.905 83.0398C110.662 82.6215 111.302 82.0199 111.768 81.2901L116.022 84.4154ZM129.612 72.9457C126.576 72.9457 124.754 74.9779 124.754 77.939C124.754 80.9001 126.575 82.9342 129.612 82.9342C132.649 82.9342 134.475 80.9052 134.475 77.939C134.475 74.9729 132.653 72.9457 129.612 72.9457ZM140.066 87.8064H134.475V85.2067H134.392C133.691 86.1523 132.781 86.9228 131.734 87.4582C130.687 87.9936 129.53 88.2794 128.355 88.2934C122.519 88.2934 118.675 84.0724 118.675 78.1032C118.675 72.6211 122.077 67.5872 127.669 67.5872C130.182 67.5872 132.53 68.2765 133.907 70.1869H133.987V58.8872H140.066L140.066 87.8064ZM181.067 87.8178H174.993V78.2852C174.993 76.0121 174.953 73.0859 171.835 73.0859C168.671 73.0859 168.187 75.5625 168.187 78.1197V87.8172H162.114V68.2143H167.945V70.8933H168.026C168.61 69.8934 169.453 69.0708 170.466 68.5132C171.479 67.9556 172.624 67.6838 173.779 67.7267C179.934 67.7267 181.069 71.7848 181.069 77.064L181.067 87.8178ZM155.262 65.5348C154.565 65.5349 153.883 65.3278 153.303 64.9398C152.724 64.5517 152.272 64.0001 152.005 63.3547C151.738 62.7093 151.668 61.9991 151.804 61.3138C151.94 60.6286 152.276 59.9991 152.768 59.505C153.261 59.0109 153.889 58.6744 154.573 58.538C155.256 58.4015 155.965 58.4714 156.609 58.7386C157.253 59.0059 157.804 59.4585 158.191 60.0393C158.578 60.6202 158.785 61.3031 158.785 62.0017C158.785 62.4656 158.694 62.925 158.517 63.3536C158.34 63.7822 158.081 64.1716 157.754 64.4997C157.426 64.8278 157.038 65.088 156.61 65.2656C156.183 65.4432 155.724 65.5347 155.262 65.5348ZM158.298 87.8178H152.219V68.2143H158.298V87.8178ZM184.094 52.8173H149.167C148.374 52.8083 147.61 53.1151 147.043 53.6704C146.476 54.2256 146.152 54.9838 146.142 55.7783V90.9304C146.152 91.7254 146.475 92.4841 147.042 93.0399C147.61 93.5957 148.374 93.9032 149.167 93.8947H184.094C184.889 93.9047 185.655 93.5981 186.225 93.0423C186.794 92.4865 187.12 91.727 187.131 90.9304V55.7758C187.12 54.9797 186.793 54.2206 186.224 53.6654C185.655 53.1102 184.889 52.8042 184.094 52.8147M191.795 88.5831C191.056 88.5902 190.35 88.8904 189.832 89.4178C189.313 89.9453 189.024 90.6572 189.027 91.3978C189.031 92.1384 189.327 92.8475 189.851 93.3699C190.374 93.8923 191.083 94.1856 191.822 94.1856C192.561 94.1856 193.27 93.8923 193.794 93.3699C194.318 92.8475 194.614 92.1384 194.617 91.3978C194.621 90.6572 194.331 89.9453 193.813 89.4178C193.294 88.8904 192.588 88.5902 191.849 88.5831H191.795ZM191.795 93.8649C191.311 93.873 190.835 93.7369 190.427 93.4737C190.02 93.2106 189.699 92.8322 189.506 92.3865C189.313 91.9408 189.257 91.4478 189.343 90.9698C189.43 90.4918 189.656 90.0503 189.993 89.7011C190.33 89.3519 190.763 89.1107 191.236 89.008C191.71 88.9053 192.204 88.9457 192.655 89.1241C193.105 89.3025 193.493 89.611 193.769 90.0103C194.045 90.4097 194.197 90.8822 194.205 91.3679V91.4092C194.219 92.0464 193.979 92.6629 193.539 93.1232C193.099 93.5835 192.495 93.8498 191.859 93.8636H191.796" fill="white"/>
</svg>
