<svg width="26" height="26" viewBox="0 0 26 26" fill="none" xmlns="http://www.w3.org/2000/svg">
<rect width="26" height="26" fill="white"/>
<path fill-rule="evenodd" clip-rule="evenodd" d="M6.00793 4.21124C3.60025 4.21124 1.64844 6.24015 1.64844 8.74293V17.8063C1.64844 20.3091 3.60025 22.338 6.00793 22.338H20.1763C22.5839 22.338 24.5358 20.3091 24.5358 17.8063V16.2958H17.2699C15.6648 16.2958 14.3636 14.9432 14.3636 13.2746C14.3636 11.6061 15.6648 10.2535 17.2699 10.2535H24.5358V8.74293C24.5358 6.24015 22.5839 4.21124 20.1763 4.21124H6.00793Z" fill="#004F98"/>
<path d="M16.9227 14.7852C17.7252 14.7852 18.3758 14.1089 18.3758 13.2746C18.3758 12.4404 17.7252 11.7641 16.9227 11.7641C16.1201 11.7641 15.4695 12.4404 15.4695 13.2746C15.4695 14.1089 16.1201 14.7852 16.9227 14.7852Z" fill="#004F98"/>
</svg>
