<svg width="42" height="42" viewBox="0 0 42 42" fill="none" xmlns="http://www.w3.org/2000/svg">
<path fill-rule="evenodd" clip-rule="evenodd" d="M9.40944 6.21143C5.52011 6.21143 2.36719 9.48889 2.36719 13.5318V28.1727C2.36719 32.2156 5.52011 35.4931 9.40944 35.4931H32.2968C36.1861 35.4931 39.339 32.2156 39.339 28.1727V25.7326H27.6019C25.009 25.7326 22.9071 23.5476 22.9071 20.8523C22.9071 18.157 25.009 15.972 27.6019 15.972H39.339V13.5318C39.339 9.48889 36.1861 6.21143 32.2968 6.21143H9.40944Z" fill="#DC2B2B"/>
<path d="M27.041 23.2924C28.3374 23.2924 29.3884 22.1999 29.3884 20.8523C29.3884 19.5046 28.3374 18.4121 27.041 18.4121C25.7445 18.4121 24.6935 19.5046 24.6935 20.8523C24.6935 22.1999 25.7445 23.2924 27.041 23.2924Z" fill="#DC2B2B"/>
</svg>
