<svg width="220" height="147" viewBox="0 0 220 147" fill="none" xmlns="http://www.w3.org/2000/svg">
<path d="M109.071 65.6377C106.934 65.6377 104.845 66.4409 103.315 67.9744C101.785 69.5079 101.008 71.6256 101.008 73.7433C101.008 75.8853 101.761 77.9786 103.266 79.5364C104.772 81.0943 106.861 81.8975 108.998 81.8975C111.135 81.8975 113.224 81.0943 114.754 79.5608C116.284 78.0273 117.061 75.9096 117.061 73.792C117.061 71.6499 116.308 69.5566 114.802 67.9988C113.272 66.4653 111.208 65.6377 109.071 65.6377ZM113.345 74.7169C113.296 75.009 113.199 75.3011 113.102 75.5932C113.005 75.8609 112.859 76.1287 112.714 76.3721C112.568 76.6155 112.398 76.8346 112.204 77.0293C112.009 77.224 111.791 77.3944 111.572 77.5648C111.329 77.7109 111.086 77.8569 110.819 77.9543C110.552 78.076 110.261 78.149 109.969 78.1977C109.678 78.2464 109.362 78.2707 109.071 78.2707C108.755 78.2707 108.464 78.2464 108.172 78.1733C107.881 78.1247 107.589 78.0273 107.322 77.9299C107.055 77.8326 106.812 77.6865 106.569 77.5405C106.351 77.3944 106.132 77.1997 105.938 77.005C105.744 76.8102 105.574 76.5912 105.428 76.3478C105.282 76.1044 105.136 75.8366 105.039 75.5688C104.918 75.2768 104.845 74.9847 104.796 74.6926C104.748 74.3761 104.724 74.0597 104.724 73.7433C104.724 73.4268 104.748 73.1104 104.821 72.794C104.869 72.5019 104.966 72.2098 105.064 71.9177C105.161 71.6499 105.306 71.3822 105.452 71.1388C105.598 70.8954 105.768 70.6763 105.962 70.4816C106.156 70.2868 106.375 70.1165 106.594 69.9461C106.836 69.8 107.079 69.654 107.346 69.5566C107.614 69.4349 107.905 69.3619 108.196 69.3132C108.488 69.2645 108.804 69.2402 109.095 69.2402C109.411 69.2402 109.702 69.2645 109.994 69.3375C110.285 69.3862 110.576 69.4836 110.844 69.581C111.111 69.6783 111.354 69.8244 111.596 69.9704C111.815 70.1164 112.034 70.3112 112.228 70.5059C112.422 70.7006 112.592 70.9197 112.738 71.1631C112.884 71.4065 113.029 71.6743 113.126 71.942C113.248 72.2341 113.321 72.5262 113.369 72.8183C113.418 73.1347 113.442 73.4512 113.442 73.7676C113.418 74.1084 113.394 74.4005 113.345 74.7169Z" fill="white"/>
<path d="M78.9575 59.3821C76.8446 57.6782 74.3917 56.4855 71.7446 55.8526C70.2388 55.4875 68.7088 55.3171 67.1545 55.2685C66.0131 55.2198 64.8474 55.2441 63.7059 55.2441H47.3615C46.2201 55.2441 45.0544 55.2441 43.9129 55.2685C42.3587 55.3171 40.8529 55.4875 39.3229 55.8526C36.6758 56.4855 34.2472 57.6782 32.1343 59.3821C27.86 62.8142 25.3828 67.9988 25.3828 73.4999C25.3828 79.001 27.86 84.1857 32.1343 87.6177C34.2472 89.3216 36.7 90.5143 39.3472 91.1472C40.8529 91.5123 42.3829 91.6827 43.9372 91.7314C45.0787 91.7801 46.2444 91.7557 47.3858 91.7557H63.7302C64.8717 91.7557 66.0374 91.7557 67.1788 91.7314C68.7331 91.6827 70.2388 91.5123 71.7688 91.1472C74.416 90.5143 76.8446 89.3216 78.9575 87.6177C83.2318 84.1857 85.7089 79.001 85.7089 73.4999C85.7089 67.9988 83.2318 62.8142 78.9575 59.3821ZM70.9674 78.4168C70.166 78.9767 69.2674 79.3174 68.3203 79.4635C67.3731 79.6095 66.4017 79.5852 65.4545 79.5852H45.6615C44.6901 79.5852 43.7429 79.6095 42.7958 79.4635C41.8244 79.3174 40.9501 78.9767 40.1486 78.4168C38.5458 77.2971 37.5743 75.4716 37.5743 73.4999C37.5743 71.5283 38.5458 69.7027 40.1486 68.583C40.9501 68.0232 41.8486 67.6824 42.7958 67.5364C43.7429 67.3903 44.7144 67.4147 45.6615 67.4147H65.4545C66.4259 67.4147 67.3731 67.3903 68.3203 67.5364C69.2917 67.6824 70.166 68.0232 70.9674 68.583C72.5703 69.7027 73.5417 71.5283 73.5417 73.4999C73.566 75.4716 72.5946 77.2971 70.9674 78.4168Z" fill="white"/>
<path d="M174.546 73.3053C174.546 73.7434 174.546 74.1816 174.522 74.5954C174.497 74.8631 174.473 75.1552 174.425 75.423C174.327 75.9341 174.157 76.4209 173.89 76.8591C173.21 77.9301 171.996 78.4656 170.782 78.4899C169.543 78.5143 168.353 78.0031 167.697 76.8834C167.43 76.4209 167.26 75.9341 167.163 75.423C167.042 74.7414 166.993 74.0112 166.993 73.3296C166.993 72.8671 166.969 72.429 166.969 71.9665V65.9299H163.277V72.2343C163.277 72.8428 163.277 73.4513 163.302 74.0598C163.326 74.498 163.326 74.9605 163.374 75.3986C163.472 76.4453 163.666 77.4676 164.127 78.4412C165.099 80.4129 166.993 81.5569 169.106 81.8003C170.15 81.922 171.219 81.8247 172.215 81.5326C173.186 81.2405 174.206 80.7536 174.91 79.9991C174.935 80.4859 174.983 81.0214 175.007 81.5082H178.237V65.9299H174.546V73.3053Z" fill="white"/>
<path d="M194.363 75.4229C193.828 73.9138 192.517 72.9888 191.133 72.4533C190.356 72.1369 189.554 71.9665 188.753 71.7718C188.388 71.6988 188.048 71.6257 187.684 71.5284C187.393 71.4554 187.077 71.358 186.785 71.2363C186.47 71.0902 186.154 70.9198 185.935 70.6521C185.741 70.433 185.644 70.1409 185.693 69.8488C185.741 69.5081 185.935 69.216 186.203 68.9969C186.397 68.8509 186.591 68.7291 186.81 68.6561C187.101 68.5344 187.393 68.4857 187.684 68.4371C188.291 68.364 188.898 68.4127 189.481 68.5344C190.38 68.7291 191.206 69.0699 191.983 69.5567C192.59 68.7048 193.221 67.8772 193.828 67.0253C192.59 66.1247 191.206 65.5648 189.7 65.3214C188.85 65.1997 188 65.1754 187.174 65.2971C186.518 65.3944 185.887 65.5405 185.28 65.8082C184.478 66.149 183.75 66.6358 183.191 67.3417C182.778 67.8285 182.487 68.4127 182.317 69.0212C182.098 69.7758 182.098 70.5791 182.341 71.358C182.56 72.0639 182.973 72.6481 183.507 73.1349C184.648 74.1329 186.275 74.498 187.66 74.7901C188.146 74.8874 188.631 74.9848 189.117 75.1309C189.506 75.2526 189.918 75.3743 190.258 75.5933C190.526 75.7637 190.793 75.9828 190.963 76.2505C191.108 76.4939 191.181 76.7617 191.157 77.0295C191.133 77.2972 191.036 77.5163 190.866 77.7353C190.671 77.9788 190.428 78.1491 190.161 78.2952C189.797 78.4656 189.408 78.5629 189.02 78.6116C188.486 78.6846 187.903 78.6603 187.368 78.5873C186.761 78.5143 186.203 78.3682 185.62 78.1735C184.745 77.8571 183.993 77.3946 183.264 76.8347L181.297 79.4636C182.463 80.4372 183.798 81.1431 185.255 81.5812C186.057 81.8003 186.883 81.9463 187.733 81.9707C188.413 81.995 189.068 81.9463 189.748 81.849C190.598 81.7029 191.448 81.4352 192.201 80.9727C192.76 80.6319 193.221 80.2181 193.634 79.707C194.144 79.0498 194.46 78.2708 194.581 77.4433C194.654 76.7617 194.606 76.0802 194.363 75.4229Z" fill="white"/>
<path d="M129.011 78.1247C128.161 78.3194 127.239 78.295 126.389 78.0273C125.539 77.7595 124.81 77.224 124.276 76.4938C123.766 75.7636 123.499 74.8873 123.45 74.011C123.401 73.1347 123.571 72.2098 123.984 71.4309C124.421 70.6033 125.053 70.0434 125.903 69.6783C126.267 69.5323 126.631 69.4106 127.02 69.3619C127.53 69.2889 127.991 69.2645 128.501 69.3375C129.4 69.4349 130.226 69.7757 130.979 70.2625C131.731 69.3132 132.46 68.3639 133.213 67.4389C131.926 66.4166 130.469 65.8324 128.866 65.662C127.287 65.4916 125.66 65.7351 124.203 66.4166C122.746 67.1225 121.58 68.2178 120.803 69.654C120.05 71.0658 119.734 72.6966 119.807 74.2788C119.88 75.8609 120.366 77.4431 121.289 78.7575C122.211 80.0963 123.523 81.0456 125.053 81.5567C126.559 82.0679 128.21 82.1653 129.764 81.8245C131.319 81.4837 132.776 80.7292 133.893 79.5608C133.043 78.6845 132.217 77.8082 131.367 76.9319C130.663 77.5161 129.861 77.9299 129.011 78.1247Z" fill="white"/>
<path d="M155.41 57.6782H159.296V81.5325H155.41V57.6782Z" fill="white"/>
<path d="M147.444 73.3053C147.444 73.7434 147.444 74.1816 147.42 74.5954C147.396 74.8631 147.372 75.1552 147.323 75.423C147.226 75.9341 147.056 76.4209 146.789 76.8591C146.109 77.9301 144.894 78.4656 143.68 78.4899C142.442 78.5143 141.252 78.0031 140.596 76.8834C140.329 76.4209 140.159 75.9341 140.062 75.423C139.94 74.7414 139.892 74.0112 139.892 73.3296C139.892 72.8671 139.867 72.429 139.867 71.9665V65.9299H136.176V72.2343C136.176 72.8428 136.176 73.4513 136.2 74.0598C136.224 74.498 136.224 74.9605 136.273 75.3986C136.37 76.4453 136.564 77.4676 137.026 78.4412C137.997 80.4129 139.892 81.5569 142.004 81.8003C143.049 81.922 144.117 81.8247 145.113 81.5326C146.084 81.2405 147.104 80.7536 147.809 79.9991C147.833 80.4859 147.882 81.0214 147.906 81.5082H151.039V65.9299H147.444V73.3053Z" fill="white"/>
</svg>
