<svg width="222" height="147" viewBox="0 0 222 147" fill="none" xmlns="http://www.w3.org/2000/svg">
<path d="M36.9521 78.7164C37.1871 79.3026 37.1126 80.0539 36.998 80.5093C36.7974 81.3175 36.2473 82.1428 34.6198 82.1428C33.0955 82.1428 32.1672 81.2663 32.1672 79.9458V77.5951H25.6172V79.462C25.6172 84.8692 29.8979 86.5027 34.488 86.5027C38.9005 86.5027 42.5337 85.0115 43.1124 80.9646C43.4104 78.8701 43.1927 77.4983 43.0895 76.9918C42.058 71.9147 32.7975 70.4007 32.1041 67.5605C32.0078 67.1416 32 66.7075 32.0812 66.2855C32.2531 65.5057 32.7861 64.6576 34.3104 64.6576C35.743 64.6576 36.5739 65.5342 36.5739 66.8547V68.3573H42.6655V66.6498C42.6655 61.3678 37.8919 60.5425 34.4422 60.5425C30.0984 60.5425 26.5513 61.9711 25.9037 65.9269C25.7318 67.0084 25.7031 67.976 25.961 69.194C27.0212 74.1459 35.6914 75.5802 36.9521 78.7164Z" fill="white"/>
<path d="M51.7498 61.3167L47.2227 85.5581H53.8185L57.1594 63.5593H57.2969L60.5461 85.5581H67.1075L62.6091 61.311L51.7498 61.3167ZM88.6256 61.3167L85.6171 79.8492H85.4738L82.471 61.3167H72.5171L71.9785 85.5581H78.0872L78.2362 63.7642H78.3737L82.4481 85.5581H88.6428L92.7229 63.7699H92.8547L93.0094 85.5581H99.1124L98.5738 61.311L88.6256 61.3167Z" fill="white"/>
<path d="M116.304 78.671C116.539 79.2572 116.464 80.0085 116.35 80.4639C116.149 81.2721 115.599 82.0974 113.971 82.0974C112.447 82.0974 111.519 81.2209 111.519 79.9004V77.5497H104.969V79.4166C104.969 84.8238 109.249 86.4573 113.84 86.4573C118.252 86.4573 121.885 84.9661 122.464 80.9192C122.762 78.8246 122.544 77.4529 122.441 76.9463C121.41 71.8693 112.149 70.3553 111.456 67.515C111.359 67.0962 111.352 66.6621 111.433 66.2401C111.605 65.4603 112.138 64.6122 113.662 64.6122C115.095 64.6122 115.925 65.4888 115.925 66.8093V68.3119H122.017V66.6044C122.017 61.3224 117.244 60.4971 113.794 60.4971C109.45 60.4971 105.903 61.9257 105.255 65.8815C105.083 66.9629 105.055 67.9306 105.313 69.1486C106.373 74.1005 115.043 75.5348 116.304 78.671Z" fill="white"/>
<path d="M136.79 81.9267C138.486 81.9267 139.008 80.7656 139.128 80.1736C139.18 79.9118 139.185 79.5589 139.185 79.2459V61.3167H145.363V78.6938C145.364 79.2255 145.345 79.7572 145.306 80.2875C144.876 84.8125 141.277 86.2809 136.79 86.2809C132.297 86.2809 128.699 84.8125 128.269 80.2875C128.252 80.0484 128.206 79.1377 128.211 78.6938V61.3111H134.389V79.2402C134.383 79.5589 134.395 79.9118 134.446 80.1736C134.561 80.7656 135.088 81.9267 136.79 81.9267ZM166.635 61.3167L166.967 80.3444H166.835L161.219 61.3167H152.165V85.302H158.165L157.832 65.614H157.964L163.987 85.302H172.68V61.3167H166.635ZM187.694 81.6763C189.459 81.6763 190.078 80.5664 190.187 79.9118C190.238 79.6443 190.244 79.3028 190.244 79.0011V75.4722H187.74V71.9433H196.387V78.4433C196.387 78.8987 196.376 79.2288 196.301 80.037C195.9 84.4539 192.044 86.0305 187.717 86.0305C183.391 86.0305 179.54 84.4539 179.133 80.037C179.064 79.2288 179.047 78.8987 179.047 78.4433V68.2437C179.047 67.8111 179.104 67.0484 179.15 66.65C179.694 62.1136 183.391 60.6565 187.717 60.6565C192.044 60.6565 195.837 62.1022 196.284 66.6443C196.364 67.4183 196.341 68.238 196.341 68.238V69.0519H190.187V67.6915C190.187 67.6915 190.187 67.1224 190.112 66.7695C189.998 66.2344 189.539 65.005 187.671 65.005C185.895 65.005 185.373 66.1718 185.241 66.7695C185.167 67.0882 185.138 67.5208 185.138 67.9135V78.9954C185.138 79.3028 185.15 79.6443 185.196 79.9175C185.31 80.5664 185.929 81.6763 187.694 81.6763Z" fill="white"/>
</svg>
