<svg width="20" height="20" viewBox="0 0 20 20" fill="none" xmlns="http://www.w3.org/2000/svg">
<path fill-rule="evenodd" clip-rule="evenodd" d="M18.2373 5.93179L17.6436 4.90163C17.1414 4.02996 16.0284 3.72925 15.1556 4.22941C14.7401 4.47417 14.2443 4.54361 13.7775 4.42242C13.3108 4.30123 12.9114 3.99936 12.6675 3.58337C12.5105 3.31897 12.4262 3.01781 12.423 2.71036C12.4372 2.21743 12.2512 1.73977 11.9075 1.38617C11.5638 1.03258 11.0915 0.833171 10.5984 0.833374H9.40238C8.91926 0.833369 8.45606 1.02588 8.11527 1.36831C7.77447 1.71075 7.58418 2.17487 7.58651 2.65798C7.57219 3.65543 6.75946 4.45649 5.7619 4.45639C5.45445 4.4532 5.15329 4.36887 4.88889 4.21195C4.01602 3.71179 2.90302 4.0125 2.40079 4.88417L1.76349 5.93179C1.26187 6.80237 1.55848 7.91467 2.42698 8.41988C2.99152 8.74581 3.33929 9.34817 3.33929 10C3.33929 10.6519 2.99152 11.2543 2.42698 11.5802C1.55958 12.082 1.26265 13.1916 1.76349 14.0596L2.36587 15.0985C2.60118 15.5231 2.996 15.8364 3.46296 15.9691C3.92992 16.1018 4.43051 16.043 4.85396 15.8056C5.27025 15.5627 5.76631 15.4961 6.23189 15.6207C6.69748 15.7453 7.094 16.0507 7.33333 16.4691C7.49026 16.7335 7.57458 17.0347 7.57778 17.3421C7.57778 18.3498 8.39468 19.1667 9.40238 19.1667H10.5984C11.6027 19.1667 12.4182 18.3551 12.423 17.3508C12.4207 16.8662 12.6122 16.4008 12.9548 16.0581C13.2975 15.7154 13.763 15.5239 14.2476 15.5262C14.5543 15.5344 14.8543 15.6184 15.1206 15.7707C15.9912 16.2723 17.1035 15.9757 17.6087 15.1072L18.2373 14.0596C18.4806 13.6419 18.5474 13.1446 18.4228 12.6776C18.2983 12.2106 17.9927 11.8125 17.5738 11.5715C17.1549 11.3305 16.8493 10.9324 16.7248 10.4654C16.6002 9.99837 16.667 9.50099 16.9103 9.08337C17.0685 8.80714 17.2976 8.5781 17.5738 8.41988C18.4371 7.91494 18.733 6.80914 18.2373 5.94052V5.93179Z" stroke="#0B0E2C" stroke-width="1.4" stroke-linecap="round" stroke-linejoin="round"/>
<path d="M12.519 10C12.519 11.3886 11.3933 12.5143 10.0047 12.5143C8.61608 12.5143 7.4904 11.3886 7.4904 10C7.4904 8.61143 8.61608 7.48575 10.0047 7.48575C11.3933 7.48575 12.519 8.61143 12.519 10Z" stroke="#0B0E2C" stroke-width="1.4" stroke-linecap="round" stroke-linejoin="round"/>
</svg>
