<svg width="22" height="20" viewBox="0 0 22 20" fill="none" xmlns="http://www.w3.org/2000/svg">
<path d="M1.58984 11.0717L1.54857 10.373C1.54837 10.373 1.54817 10.373 1.54798 10.373C1.54791 10.373 1.54784 10.373 1.54778 10.373C1.54767 10.373 1.54757 10.373 1.54746 10.373C1.17807 10.3954 0.889844 10.7015 0.889844 11.0717V15.8702C0.889844 16.0669 0.972611 16.2545 1.11789 16.3872C1.26316 16.5198 1.45754 16.5852 1.65343 16.5673C4.56612 16.3016 6.95291 15.4547 8.87174 14.1376L8.14271 15.5489C8.03061 15.7659 8.03974 16.0257 8.16677 16.2343C8.29381 16.4429 8.52039 16.5702 8.76464 16.5702H14.4057C14.6685 16.5702 14.9092 16.423 15.0289 16.189L21.0346 4.44843C21.1456 4.23142 21.1357 3.9723 21.0085 3.76437C20.8814 3.55643 20.6552 3.42964 20.4114 3.42964H14.8443C14.583 3.42964 14.3433 3.57527 14.223 3.80729L13.2978 5.59078V4.12972C13.2978 3.74312 12.9844 3.42972 12.5978 3.42972H8.79181C8.52604 3.42972 8.28319 3.58023 8.16493 3.81824L7.32238 5.5139V4.12972C7.32238 3.74312 7.00898 3.42972 6.62238 3.42972H1.58984C1.20324 3.42972 0.889844 3.74312 0.889844 4.12972V9.16225C0.889844 9.54885 1.20324 9.86225 1.58984 9.86225H3.71406C3.47723 9.95532 3.24187 10.0329 3.01552 10.0973C2.59464 10.217 2.22102 10.2866 1.95414 10.326C1.82108 10.3456 1.71558 10.3576 1.64525 10.3646C1.61011 10.3681 1.58384 10.3703 1.56739 10.3716L1.55022 10.3728L1.5482 10.373C1.54838 10.373 1.54857 10.373 1.58984 11.0717ZM1.58984 11.0717L1.58984 15.1672L5.23092 9.86225C3.60595 10.9527 1.58984 11.0717 1.58984 11.0717ZM5.00984 9.16225H2.28984H1.58984H5.00984Z" stroke="#0B0E2C" stroke-width="1.4" stroke-linecap="round" stroke-linejoin="round"/>
</svg>
