<svg width="20" height="20" viewBox="0 0 20 20" fill="none" xmlns="http://www.w3.org/2000/svg">
<path d="M7.62971 17.0091V14.4535C7.6297 13.8035 8.15963 13.2753 8.81621 13.2709H11.2213C11.881 13.2709 12.4158 13.8004 12.4158 14.4535V14.4535V17.017C12.4156 17.5689 12.8606 18.02 13.4179 18.0329H15.0213C16.6196 18.0329 17.9154 16.7502 17.9154 15.1678V15.1678V7.8978C17.9068 7.27529 17.6116 6.69073 17.1137 6.31047L11.6301 1.93736C10.6695 1.17591 9.30387 1.17591 8.34321 1.93736L2.88372 6.3184C2.38391 6.69712 2.08819 7.28266 2.08203 7.90574V15.1678C2.08203 16.7502 3.37776 18.0329 4.97612 18.0329H6.5795C7.15066 18.0329 7.61368 17.5746 7.61368 17.0091V17.0091" stroke="#004F98" stroke-width="1.4" stroke-linecap="round" stroke-linejoin="round"/>
</svg>
