<svg width="20" height="20" viewBox="0 0 20 20" fill="none" xmlns="http://www.w3.org/2000/svg">
<path d="M5.32481 17.7155C5.12373 17.9136 4.88559 18.0701 4.624 18.1761C4.36242 18.2821 4.08251 18.3355 3.80028 18.3332C3.51804 18.331 3.23902 18.2732 2.97914 18.163C2.71927 18.0529 2.48364 17.8927 2.28572 17.6915V17.6915C2.08766 17.4904 1.93117 17.2522 1.82519 16.9907C1.7192 16.7291 1.6658 16.4492 1.66804 16.1669C1.67027 15.8847 1.7281 15.6057 1.83822 15.3458C1.94833 15.0859 2.10858 14.8503 2.3098 14.6524L8.5917 8.31862C8.31955 7.54095 8.24378 6.70807 8.37113 5.89406C8.49849 5.08004 8.82501 4.31011 9.32168 3.65272C9.81834 2.99533 10.4698 2.47085 11.218 2.12592C11.9662 1.78098 12.7881 1.62629 13.6105 1.67558C13.7505 1.68256 13.8855 1.73001 13.999 1.81217C14.1125 1.89434 14.1998 2.00768 14.2502 2.13846C14.3006 2.26923 14.3119 2.41182 14.2829 2.54892C14.2538 2.68603 14.1856 2.81175 14.0865 2.91085L12.8438 4.13316C12.4374 4.53322 12.2065 5.07835 12.202 5.64864C12.1975 6.21893 12.4197 6.76765 12.8198 7.1741C13.2198 7.58055 13.765 7.81142 14.3352 7.81594C14.9055 7.82045 15.4543 7.59824 15.8607 7.19817L17.1015 5.97587C17.2019 5.87848 17.3283 5.81223 17.4655 5.78512C17.6026 5.75801 17.7447 5.77121 17.8746 5.82311C18.0044 5.87501 18.1165 5.9634 18.1972 6.07759C18.2779 6.19179 18.3238 6.32692 18.3294 6.46664C18.3649 7.28886 18.197 8.10714 17.8405 8.84889C17.484 9.59065 16.9499 10.2329 16.2856 10.7188C15.6213 11.2046 14.8474 11.519 14.0325 11.634C13.2176 11.749 12.3869 11.6611 11.6141 11.3781L5.32481 17.7155Z" stroke="#0B0E2C" stroke-width="1.4" stroke-linecap="round" stroke-linejoin="round"/>
</svg>
