<svg width="20" height="20" viewBox="0 0 20 20" fill="none" xmlns="http://www.w3.org/2000/svg">
<path d="M8.33464 11.6667C8.33464 11.9963 8.43238 12.3186 8.61552 12.5926C8.79866 12.8667 9.05895 13.0803 9.3635 13.2065C9.66804 13.3326 10.0032 13.3656 10.3265 13.3013C10.6498 13.237 10.9467 13.0783 11.1798 12.8452C11.4129 12.6121 11.5716 12.3151 11.6359 11.9918C11.7003 11.6685 11.6672 11.3334 11.5411 11.0289C11.415 10.7243 11.2013 10.464 10.9273 10.2809C10.6532 10.0978 10.3309 10 10.0013 10C9.67167 10 9.34943 9.90227 9.07535 9.71914C8.80127 9.536 8.58765 9.2757 8.4615 8.97116C8.33536 8.66662 8.30235 8.33151 8.36666 8.0082C8.43097 7.6849 8.5897 7.38793 8.82279 7.15484C9.05588 6.92176 9.35285 6.76302 9.67615 6.69871C9.99945 6.6344 10.3346 6.66741 10.6391 6.79356C10.9437 6.9197 11.204 7.13332 11.3871 7.4074C11.5702 7.68149 11.668 8.00372 11.668 8.33335M10.0013 5.55558V6.66669M10.0013 13.3334V14.4445M1.66797 10C1.66797 12.2102 2.54594 14.3298 4.10875 15.8926C5.67155 17.4554 7.79116 18.3334 10.0013 18.3334C12.2114 18.3334 14.3311 17.4554 15.8939 15.8926C17.4567 14.3298 18.3346 12.2102 18.3346 10C18.3346 7.78988 17.4567 5.67027 15.8939 4.10746C14.3311 2.54466 12.2114 1.66669 10.0013 1.66669C7.79116 1.66669 5.67155 2.54466 4.10875 4.10746C2.54594 5.67027 1.66797 7.78988 1.66797 10Z" stroke="#0B0E2C" stroke-width="1.4" stroke-linecap="round" stroke-linejoin="round"/>
</svg>
