<svg width="20" height="20" viewBox="0 0 20 20" fill="none" xmlns="http://www.w3.org/2000/svg">
<path d="M7.82902 3.13563C8.64214 1.17704 11.3605 1.17704 12.1736 3.13563L12.7399 4.49986C13.0729 5.30196 13.804 5.85801 14.652 5.95411L16.2325 6.13321C18.2284 6.3594 19.0528 8.86622 17.5951 10.2767L16.2532 11.5752C15.6632 12.1461 15.4025 12.9869 15.5632 13.8005L15.8872 15.4406C16.2973 17.5167 14.0732 19.0842 12.3178 17.9562L11.2579 17.2752C10.4899 16.7817 9.51275 16.7817 8.74473 17.2752L7.68481 17.9562C5.92939 19.0842 3.7053 17.5167 4.11541 15.4406L4.4394 13.8005C4.60012 12.9869 4.33943 12.1461 3.74943 11.5752L2.40752 10.2767C0.949803 8.86622 1.77419 6.3594 3.77014 6.13321L5.35062 5.95411C6.19857 5.85801 6.92966 5.30196 7.26266 4.49986L7.82902 3.13563Z" stroke="#0B0E2C" stroke-width="1.4" stroke-linecap="round" stroke-linejoin="round"/>
</svg>
