<svg width="220" height="147" viewBox="0 0 220 147" fill="none" xmlns="http://www.w3.org/2000/svg">
<path d="M89.7068 72.9946C87.4516 72.9946 85.6173 73.6635 84.2115 75.0014C82.8056 76.3401 82.0924 78.0951 82.0924 80.2458C82.0924 81.36 82.2696 82.3762 82.6185 83.3067C82.9674 84.24 83.5104 85.1044 84.2409 85.8849C84.971 86.6667 86.4325 87.7285 88.611 89.0785C91.2839 90.7144 93.033 92.041 93.8725 93.0774C94.7125 94.1133 95.1292 95.1985 95.1292 96.3296C95.1292 97.8446 94.6316 99.0535 93.6092 99.9624C92.585 100.872 91.2151 101.325 89.5169 101.325C87.7257 101.325 86.1655 100.692 84.8255 99.4351C83.4856 98.1765 82.8093 96.512 82.7939 94.4251H81.9609V101.999H82.7939C83.0483 101.282 83.4 100.914 83.8607 100.914C84.0824 100.914 84.6015 101.068 85.4101 101.354C87.3772 102.055 88.9927 102.394 90.2624 102.394C92.4507 102.394 94.3182 101.626 95.8747 100.065C97.4284 98.5046 98.2132 96.6226 98.2132 94.4255C98.2132 92.7216 97.695 91.2052 96.6787 89.8843C95.6619 88.5614 93.6845 87.0225 90.7297 85.2553C88.1878 83.7244 86.5373 82.4775 85.7754 81.5053C85.0126 80.535 84.6207 79.4611 84.6207 78.2826C84.6207 77.0081 85.0879 75.9848 86.0093 75.2212C86.9306 74.4571 88.1377 74.0784 89.6484 74.0784C91.3484 74.0784 92.7655 74.5842 93.887 75.6018C95.0071 76.6214 95.6549 78.0347 95.8452 79.8501H96.6782V73.2876H95.9037C95.8092 73.6223 95.7213 73.836 95.6409 73.9321C95.5623 74.0278 95.4117 74.0784 95.1877 74.0784C94.9183 74.0784 94.4375 73.9649 93.7551 73.7418C92.2936 73.2482 90.9462 72.9946 89.7068 72.9946ZM116.935 72.9946C114.187 72.9946 111.692 73.6439 109.438 74.9428C107.18 76.2393 105.393 78.0403 104.074 80.3334C102.755 82.6266 102.101 85.0622 102.101 87.6577C102.101 91.1447 103.239 94.2512 105.535 96.9741C107.832 99.6953 110.584 101.391 113.778 102.043C114.508 102.424 115.553 103.408 116.921 105.002C118.462 106.8 119.765 108.097 120.838 108.869C121.886 109.626 123.051 110.205 124.287 110.583C125.51 110.956 126.832 111.139 128.262 111.139C129.994 111.139 131.544 110.838 132.91 110.216L132.603 109.455C131.81 109.741 130.965 109.879 130.075 109.879C128.866 109.879 127.645 109.48 126.42 108.678C125.198 107.875 123.67 106.341 121.846 104.079C120.989 102.995 120.397 102.311 120.063 102.042C123.557 101.358 126.43 99.661 128.671 96.9446C130.912 94.2296 132.033 91.1307 132.033 87.6577C132.033 83.5341 130.569 80.0686 127.663 77.2425C124.755 74.4168 121.178 72.9946 116.935 72.9946ZM133.933 72.9946L133.976 73.8881C135.807 73.8881 136.831 74.4285 137.06 75.5142C137.146 75.9028 137.185 76.62 137.192 77.6526L137.178 97.4138C137.162 98.8895 136.952 99.8317 136.549 100.24C136.145 100.647 135.462 100.901 134.474 101.003L134.43 101.896H152.67L153.137 97.4134H152.304C152.066 98.6345 151.521 99.5096 150.653 100.007C149.783 100.507 148.243 100.754 146.02 100.754H144.295C142.295 100.754 141.137 100.029 140.831 98.5707C140.768 98.2824 140.747 97.9731 140.743 97.6332L140.817 77.6526C140.816 76.1793 141.002 75.1917 141.387 74.7084C141.776 74.227 142.476 73.9574 143.491 73.8881L143.448 72.9946H133.933ZM117.228 74.0784C120.327 74.0784 122.858 75.3018 124.813 77.7698C126.767 80.2387 127.736 83.6222 127.736 87.9066C127.736 91.9665 126.753 95.2173 124.784 97.6627C122.814 100.107 120.193 101.325 116.935 101.325C113.806 101.325 111.268 100.069 109.321 97.5456C107.375 95.0218 106.412 91.7452 106.412 87.7163C106.412 83.5763 107.387 80.2617 109.35 77.7848C111.312 75.3098 113.939 74.0784 117.228 74.0784ZM159.174 78.3267C158.728 78.3267 158.389 78.4772 158.135 78.7809C157.876 79.0828 157.797 79.4494 157.888 79.8942C157.975 80.3255 158.218 80.7037 158.603 81.022C158.987 81.3398 159.401 81.5053 159.846 81.5053C160.276 81.5053 160.604 81.3398 160.84 81.022C161.075 80.7033 161.147 80.3255 161.059 79.8942C160.968 79.4489 160.734 79.0833 160.372 78.7809C160.006 78.4772 159.604 78.3262 159.173 78.3262L159.174 78.3267ZM171.202 81.3591C170.446 84.2733 168.807 85.8506 166.291 86.1052L166.32 86.9396H169.258L169.2 96.8129C169.204 98.5009 169.256 99.6249 169.375 100.197C169.664 101.566 170.556 102.262 172.05 102.262C174.21 102.262 176.476 100.944 178.846 98.3073L178.13 97.6918C176.418 99.4281 174.905 100.299 173.584 100.299C172.772 100.299 172.269 99.8312 172.079 98.9077C172.027 98.6837 172.006 98.4212 172.006 98.1165L172.035 86.94H176.522L176.478 85.6069H172.049V81.3591H171.202ZM188.55 85.0795C186.041 85.0795 183.999 86.3006 182.412 88.7269C180.833 91.1574 180.344 93.8504 180.965 96.8129C181.33 98.5482 182.058 99.8935 183.172 100.841C184.284 101.789 185.695 102.262 187.381 102.262C188.951 102.262 191.138 101.864 192.058 101.061C192.98 100.259 193.83 98.9593 194.616 97.1795L193.987 96.5199C192.735 98.829 190.208 99.9915 188.302 99.9915C185.681 99.9915 184.077 98.551 183.479 95.6851C183.401 95.3194 183.343 94.9262 183.303 94.5132C186.42 94.0187 188.783 93.1426 190.377 91.8765C191.97 90.6094 193.57 89.2669 193.271 87.848C193.093 87.0052 192.657 86.3424 191.985 85.8413C191.304 85.3406 189.538 85.0795 188.55 85.0795ZM161.117 85.1822L155.71 86.4272V87.3942L157.58 87.1599C158.487 87.1599 159.02 87.571 159.188 88.3903C159.245 88.6641 159.28 89.0494 159.291 89.5327L159.232 98.3949C159.217 99.6212 159.081 100.334 158.808 100.548C158.533 100.763 157.807 100.871 156.63 100.871L156.601 101.705H165.18L165.166 100.871C163.974 100.871 163.201 100.776 162.857 100.592C162.518 100.41 162.285 100.077 162.184 99.5668C162.107 99.1998 162.072 98.5665 162.067 97.6918L162.097 85.1822H161.117ZM187.177 86.8228C187.699 86.8228 188.203 87.0244 188.711 87.4233C189.212 87.8203 189.517 88.2624 189.617 88.7419C190.106 91.0979 188.022 92.7263 183.333 93.6343C183.199 91.9163 183.496 90.3568 184.254 88.9468C185.005 87.5382 185.984 86.8228 187.177 86.8228Z" fill="white"/>
<path d="M77.592 39.1587H31.0531C27.9355 39.1587 25.3828 41.7171 25.3828 44.8428V96.2828C25.3828 99.4084 27.935 101.966 31.054 101.966H61.705C61.3571 86.6804 66.5648 57.0158 77.592 39.1592V39.1587Z" fill="white"/>
<path d="M75.9033 40.8171H31.0565C28.8415 40.8171 27.0391 42.6228 27.0391 44.8428V92.529C37.1964 88.6224 52.4407 85.2512 62.981 85.404C65.0997 74.3039 71.3246 52.5491 75.9033 40.8171Z" fill="#004F98"/>
<path d="M88.447 37.4755C85.2597 34.6264 81.4008 35.7711 77.5919 39.1588C77.0044 39.6865 76.4402 40.2399 75.9012 40.8173C69.3863 47.7445 63.3381 60.5766 61.4589 70.3768C62.1913 71.8642 62.7629 73.7626 63.1393 75.2129C63.2357 75.5851 63.3231 75.9343 63.3924 76.2315C63.5579 76.9347 63.6468 77.3903 63.6468 77.3903C63.6468 77.3903 63.5883 77.169 63.3489 76.472C63.2971 76.3215 63.2447 76.1712 63.1917 76.0211C63.1605 75.9372 63.1271 75.8542 63.0916 75.7721C62.666 74.7817 61.4907 72.6915 60.973 71.7817C60.5629 72.9874 60.1759 74.2009 59.8122 75.4215C61.306 78.1609 62.2161 82.855 62.2161 82.855C62.2161 82.855 62.1376 82.5508 61.762 81.4891C61.4285 80.5497 59.7692 77.6354 59.3758 76.9539C58.7033 79.4425 58.4358 81.1225 58.6771 81.5312C59.1448 82.3239 59.5905 83.6917 59.982 85.2039C60.8659 88.6113 61.4805 92.7588 61.4805 92.7588C61.4805 92.7588 61.5001 93.034 61.5333 93.4573C61.417 96.2944 61.4745 99.136 61.7054 101.966C61.9982 105.515 62.5496 108.565 63.2521 110.196L63.7291 109.936C62.6974 106.721 62.2783 102.507 62.4617 97.6479C62.7395 90.2205 64.4447 81.2636 67.596 71.9274C72.9192 57.8344 80.3054 46.5271 87.0654 41.1271C80.9041 46.7039 72.5652 64.7565 70.0686 71.4413C67.2737 78.9273 65.2931 85.952 64.0995 92.6829C66.1588 86.373 72.8182 83.6608 72.8182 83.6608C72.8182 83.6608 76.0845 79.6234 79.9014 73.8554C77.6148 74.3781 73.8607 75.2729 72.6031 75.8026C70.7482 76.5821 70.2482 76.8484 70.2482 76.8484C70.2482 76.8484 76.2571 73.1809 81.412 71.5206C88.5017 60.3291 96.2251 44.4299 88.447 37.4755Z" fill="white"/>
</svg>
