<svg width="48" height="48" viewBox="0 0 48 48" fill="none" xmlns="http://www.w3.org/2000/svg">
<rect width="48" height="48" rx="13" fill="#FFF4F4"/>
<path fill-rule="evenodd" clip-rule="evenodd" d="M24 38C31.3638 38 37.3333 32.0304 37.3333 24.6666C37.3333 17.3028 31.3638 11.3333 24 11.3333C16.6362 11.3333 10.6667 17.3028 10.6667 24.6666C10.6667 32.0304 16.6362 38 24 38ZM24 40.6666C32.8366 40.6666 40 33.5032 40 24.6666C40 15.8301 32.8366 8.66663 24 8.66663C15.1634 8.66663 8 15.8301 8 24.6666C8 33.5032 15.1634 40.6666 24 40.6666Z" fill="#FF414C"/>
<path fill-rule="evenodd" clip-rule="evenodd" d="M24.001 19.2203C24.8096 19.2203 25.4651 19.8758 25.4651 20.6844V23.2025H27.9832C28.7918 23.2025 29.4473 23.858 29.4473 24.6666C29.4473 25.4752 28.7918 26.1307 27.9832 26.1307H25.4651V28.6488C25.4651 29.4574 24.8096 30.1129 24.001 30.1129C23.1924 30.1129 22.5369 29.4574 22.5369 28.6488V26.1307H20.0188C19.2102 26.1307 18.5547 25.4752 18.5547 24.6666C18.5547 23.858 19.2102 23.2025 20.0188 23.2025H22.5369V20.6844C22.5369 19.8758 23.1924 19.2203 24.001 19.2203Z" fill="#FF414C"/>
</svg>
