<svg width="48" height="48" viewBox="0 0 48 48" fill="none" xmlns="http://www.w3.org/2000/svg">
<rect width="48" height="48" rx="13" fill="#EDFBEE"/>
<path fill-rule="evenodd" clip-rule="evenodd" d="M24 37.3333C31.3638 37.3333 37.3333 31.3638 37.3333 24C37.3333 16.6362 31.3638 10.6667 24 10.6667C16.6362 10.6667 10.6667 16.6362 10.6667 24C10.6667 31.3638 16.6362 37.3333 24 37.3333ZM24 40C32.8366 40 40 32.8366 40 24C40 15.1634 32.8366 8 24 8C15.1634 8 8 15.1634 8 24C8 32.8366 15.1634 40 24 40Z" fill="#45C74E"/>
<path fill-rule="evenodd" clip-rule="evenodd" d="M29.6264 20.0744C30.1376 20.6044 30.1223 21.4485 29.5922 21.9597L23.3709 27.9597C22.8545 28.4578 22.0365 28.4578 21.5199 27.9599L18.408 24.9599C17.8778 24.4488 17.8623 23.6047 18.3734 23.0746C18.8845 22.5444 19.7286 22.529 20.2587 23.04L22.4451 25.1478L27.7411 20.0402C28.2711 19.529 29.1152 19.5443 29.6264 20.0744Z" fill="#45C74E"/>
</svg>
