<svg width="56" height="56" viewBox="0 0 56 56" fill="none" xmlns="http://www.w3.org/2000/svg">
<rect width="56" height="56" rx="15" fill="#F4F7FF"/>
<path fill-rule="evenodd" clip-rule="evenodd" d="M32.2401 15.3544L16.71 34.7788C16.5013 35.0393 16.4275 35.3723 16.5022 35.6907C16.5022 35.6905 16.5023 35.6908 16.5022 35.6907L17.5553 40.1478L22.2568 40.0888L22.2595 40.0888C22.6237 40.0848 22.9542 39.9202 23.1678 39.6543L23.1685 39.6534L23.17 39.6515L25.6178 36.5894C27.0885 34.7494 29.0501 32.2952 31.0133 29.8382C32.9767 27.3811 34.9416 24.9215 36.4191 23.0705C37.158 22.145 37.7746 21.372 38.2082 20.8277C38.4251 20.5555 38.5957 20.3411 38.7126 20.1938C38.7635 20.1297 38.8035 20.0792 38.8324 20.0426C39.3522 19.1497 39.0713 17.9977 38.1432 17.4366C38.0891 17.4039 38.0369 17.368 37.9869 17.3292L36.5894 16.2434C35.8904 15.7003 35.1675 15.1384 35.1185 15.0999L35.1068 15.0905C34.2358 14.3911 32.9506 14.5184 32.2401 15.3544ZM39.9132 14.7087C42.325 16.231 43.0813 19.4009 41.5471 21.835C41.531 21.86 41.5083 21.8937 41.4998 21.9058L41.4803 21.9329C41.4723 21.9438 41.4655 21.9529 41.4619 21.9575C41.4543 21.9676 41.4468 21.9772 41.4413 21.9843L41.3987 22.0386C41.3655 22.0807 41.3185 22.1402 41.2592 22.2148C41.1403 22.3647 40.9682 22.5809 40.751 22.8535C40.3164 23.399 39.699 24.173 38.96 25.0988C37.4819 26.9503 35.5166 29.4105 33.5532 31.8677C31.5898 34.3249 29.6281 36.7793 28.1573 38.6193L25.7067 41.6849C25.7066 41.6851 25.7066 41.6852 24.4369 40.6701L25.7067 41.6849L25.7052 41.6868C24.8758 42.7215 23.6234 43.3249 22.296 43.3397C22.2956 43.3397 22.2952 43.3397 22.2949 43.3397L16.2933 43.415C15.5319 43.4246 14.866 42.9044 14.6909 42.1634L13.3377 36.436C13.0338 35.1446 13.3387 33.7871 14.1726 32.7463C14.1729 32.746 14.1731 32.7457 14.1733 32.7454L29.7138 13.308C29.7213 13.2985 29.729 13.2892 29.7367 13.2799C31.5854 11.0705 34.8874 10.7518 37.1343 12.5491C37.1358 12.5503 37.1379 12.5519 37.1406 12.554L39.9132 14.7087ZM38.8745 19.9889C38.8839 19.9763 38.89 19.9685 38.8906 19.9679C38.8912 19.9673 38.8864 19.9736 38.8745 19.9889Z" fill="#004F98"/>
<path fill-rule="evenodd" clip-rule="evenodd" d="M26.7934 16.9726C27.3402 16.2606 28.3607 16.1267 29.0728 16.6735L38.068 23.5815C38.78 24.1283 38.9139 25.1488 38.3671 25.8608C37.8203 26.5728 36.7998 26.7068 36.0878 26.16L27.0926 19.252C26.3805 18.7052 26.2466 17.6847 26.7934 16.9726Z" fill="#004F98"/>
</svg>
