<svg width="403" height="482" viewBox="0 0 403 482" fill="none" xmlns="http://www.w3.org/2000/svg">
<path opacity="0.04" d="M347.3 460.724L346.462 20.7446C346.452 19.9149 346.692 19.1014 347.15 18.4089C347.609 17.7163 348.265 17.1765 349.034 16.859L397.61 0.246093C398.227 0.0197133 398.89 -0.0520017 399.541 0.037253C400.192 0.126508 400.81 0.373971 401.343 0.757884C401.875 1.1418 402.304 1.65033 402.593 2.23868C402.882 2.82704 403.02 3.47716 402.998 4.13169V477.868C403.02 478.523 402.882 479.173 402.593 479.761C402.304 480.35 401.875 480.858 401.343 481.242C400.81 481.626 400.192 481.873 399.541 481.963C398.89 482.052 398.227 481.98 397.61 481.754L349.871 464.609C349.102 464.292 348.446 463.752 347.988 463.059C347.53 462.367 347.29 461.553 347.3 460.724ZM273.272 434.194V47.0746C273.3 46.266 273.566 45.4835 274.038 44.8252C274.51 44.1668 275.166 43.6617 275.924 43.3731L311.123 31.279C311.807 30.9379 312.564 30.7664 313.329 30.7789C314.094 30.7914 314.845 30.9875 315.517 31.3508C316.19 31.714 316.765 32.2336 317.194 32.8654C317.622 33.4973 317.892 34.2227 317.979 34.9804L318.45 447.019C318.362 447.777 318.093 448.503 317.665 449.135C317.236 449.766 316.661 450.286 315.988 450.649C315.315 451.012 314.565 451.208 313.8 451.221C313.035 451.233 312.278 451.062 311.594 450.721L275.924 437.896C275.166 437.607 274.51 437.102 274.038 436.444C273.566 435.785 273.3 435.003 273.272 434.194ZM205.904 410.663L205.753 71.0192C205.786 70.2135 206.057 69.4355 206.53 68.7821C207.004 68.1286 207.661 67.6286 208.418 67.3444L238.144 57.0942C238.842 56.7362 239.615 56.5499 240.4 56.5509C241.184 56.5518 241.957 56.7401 242.654 57.0999C243.35 57.4597 243.95 57.9805 244.404 58.6188C244.857 59.2572 245.15 59.9944 245.259 60.769L245.109 421.231C245 422.006 244.706 422.743 244.253 423.381C243.8 424.02 243.2 424.54 242.503 424.9C241.806 425.26 241.033 425.448 240.249 425.449C239.464 425.45 238.691 425.264 237.993 424.906L208.568 414.338C207.811 414.053 207.155 413.553 206.681 412.9C206.207 412.247 205.937 411.468 205.904 410.663ZM91.2696 370.328L90.9661 111.722C90.9642 111.138 91.1228 110.565 91.4249 110.065C91.727 109.565 92.1608 109.157 92.6793 108.886L113.015 101.909C113.498 101.663 114.036 101.546 114.578 101.569C115.119 101.592 115.645 101.754 116.105 102.039C116.566 102.325 116.944 102.724 117.204 103.198C117.464 103.672 117.597 104.204 117.589 104.744L116.823 377.255C116.83 377.795 116.697 378.328 116.437 378.802C116.177 379.276 115.799 379.675 115.339 379.96C114.879 380.246 114.352 380.407 113.811 380.43C113.27 380.453 112.731 380.336 112.249 380.091L92.9828 373.164C92.4644 372.892 92.0305 372.485 91.7284 371.985C91.4264 371.485 91.2677 370.911 91.2696 370.328ZM146.229 389.059L145.602 92.2188C145.636 91.4432 145.893 90.6935 146.341 90.0585C146.789 89.4235 147.41 88.9297 148.13 88.6354L168.383 81.6491C171.727 80.0778 175.888 82.0643 175.888 85.2325L177.74 396.767C177.74 399.936 173.58 401.922 170.236 400.351L148.757 392.642C148.037 392.348 147.415 391.854 146.967 391.219C146.519 390.584 146.263 389.834 146.229 389.059ZM41.2696 351.346L40.4436 130.122C40.4297 129.478 40.5885 128.843 40.9033 128.28C41.218 127.718 41.6775 127.25 42.2343 126.924L56.8338 121.907C57.348 121.664 57.9175 121.56 58.4846 121.608C59.0517 121.655 59.5962 121.851 60.0627 122.176C60.5293 122.501 60.9013 122.943 61.1411 123.457C61.3808 123.972 61.4797 124.54 61.4277 125.105L62.9536 356.895C63.0056 357.46 62.9067 358.028 62.667 358.543C62.4272 359.057 62.0552 359.499 61.5887 359.824C61.1221 360.149 60.5776 360.345 60.0105 360.392C59.4434 360.439 58.8739 360.336 58.3597 360.093L43.0603 354.544C42.5034 354.218 42.044 353.75 41.7292 353.188C41.4144 352.625 41.2558 351.99 41.2696 351.346ZM0.000152588 337.05V144.544C-0.00296021 143.827 0.185791 143.122 0.546844 142.502C0.907928 141.882 1.42825 141.369 2.05438 141.016L10.7481 138.233C11.3543 137.904 12.0366 137.74 12.7266 137.756C13.4166 137.772 14.0902 137.969 14.6801 138.326C15.27 138.683 15.7554 139.188 16.088 139.791C16.4205 140.394 16.5885 141.073 16.5751 141.761V340.238C16.5885 340.926 16.4205 341.606 16.088 342.208C15.7554 342.811 15.27 343.317 14.6801 343.674C14.0902 344.031 13.4166 344.228 12.7266 344.244C12.0366 344.26 11.3543 344.096 10.7481 343.767L2.05438 340.579C1.42825 340.226 0.907837 339.713 0.546753 339.092C0.185669 338.472 -0.00292969 337.767 0.000152588 337.05Z" fill="white"/>
</svg>
