<svg width="333" height="494" viewBox="0 0 333 494" fill="none" xmlns="http://www.w3.org/2000/svg">
<path opacity="0.04" d="M20.9622 493.701L317.798 449.159C321.908 448.665 325.704 446.718 328.494 443.67C331.285 440.623 332.884 436.678 333 432.554V61.4457C332.884 57.3223 331.285 53.3777 328.494 50.3301C325.704 47.2826 321.908 45.3348 317.798 44.8415L20.9622 0.299049C18.4662 -0.164449 15.8994 -0.0884366 13.4354 0.52202C10.9714 1.13248 8.6676 2.26316 6.68011 3.83746C4.69263 5.41175 3.06769 7.39295 1.91519 9.64712C0.762695 11.9013 0.109619 14.3758 0 16.9033V477.097C0.109619 479.624 0.762695 482.099 1.91519 484.353C3.06769 486.607 4.69263 488.588 6.68011 490.163C8.6676 491.737 10.9714 492.868 13.4354 493.478C15.8994 494.088 18.4662 494.165 20.9622 493.701Z" fill="white"/>
</svg>
